<svg width="166" height="23" viewBox="0 0 166 23" fill="none" xmlns="http://www.w3.org/2000/svg">
<path d="M14.8816 1.27499C14.6983 1.20992 14.4975 1.30201 14.4302 1.48003C14.3635 1.65928 14.4564 1.85817 14.6384 1.92447C18.6912 3.39529 21.4133 7.24056 21.4133 11.4941C21.4133 13.0373 21.0692 14.521 20.3902 15.9059C19.574 15.3043 18.703 14.7819 17.7996 14.3534C17.87 13.8261 17.9056 13.3019 17.9056 12.7936C17.9056 12.68 17.9012 12.5671 17.8968 12.4541L17.8925 12.3418C18.6145 10.9403 18.7467 9.34613 18.2647 7.84891C17.7759 6.33081 16.7165 5.09141 15.2806 4.35784C15.1092 4.27128 14.8966 4.33697 14.8074 4.50578C14.0623 5.91891 13.9214 7.53338 14.4096 9.05086C14.871 10.4855 15.8586 11.6825 17.1923 12.4277L17.1948 12.5051C17.1985 12.6009 17.2023 12.6972 17.2023 12.7936C17.2023 13.216 17.1798 13.6401 17.1343 14.0563C15.3305 13.3025 13.4052 12.8986 11.4081 12.8562V8.85626C12.5304 7.69789 13.1477 6.18348 13.1477 4.58681C13.1477 2.93305 12.493 1.37751 11.294 0.200112C11.261 0.170033 11.2273 0.147934 11.1899 0.133201C11.1469 0.115399 11.1032 0.111102 11.0907 0.112329L11.0496 0.108032C11.0047 0.108646 10.9617 0.11724 10.9212 0.133815C10.8781 0.151617 10.8395 0.176785 10.8064 0.20932C8.40909 2.57026 8.36607 6.44131 10.7042 8.85688V12.8568C8.70712 12.8992 6.78239 13.3031 4.97799 14.057C4.93248 13.6407 4.91003 13.2166 4.91003 12.7942C4.91003 12.6991 4.91377 12.6052 4.91751 12.5112L4.92063 12.4284C6.25429 11.6831 7.24128 10.4861 7.70267 9.05209C8.19087 7.53399 8.04996 5.91952 7.30488 4.5064C7.26186 4.42475 7.18828 4.36398 7.09912 4.33635C7.01121 4.30873 6.91332 4.31732 6.83102 4.35907C3.89186 5.8612 2.72405 9.43821 4.22107 12.3436L4.21733 12.4449C4.21296 12.5616 4.20797 12.6776 4.20797 12.7955C4.20797 13.3031 4.24351 13.828 4.31397 14.3553C3.4099 14.7844 2.53888 15.3062 1.72334 15.9084C1.04436 14.5229 0.700186 13.0398 0.700186 11.4965C0.70268 7.24118 3.42486 3.39529 7.47759 1.92508C7.5655 1.89316 7.63595 1.82932 7.67524 1.74522C7.71452 1.66173 7.71826 1.56781 7.68583 1.48064C7.61912 1.30262 7.41648 1.21054 7.23442 1.27561C2.90736 2.84588 0 6.95204 0 11.4947C0 17.4977 4.96053 22.3822 11.0583 22.3822C13.5018 22.3822 15.82 21.6081 17.7509 20.1527C17.7728 20.141 17.789 20.1269 17.8045 20.1128C20.5448 18.0287 22.1166 14.8881 22.1166 11.4953C22.1166 6.95327 19.2093 2.8465 14.8822 1.27622L14.8816 1.27499ZM17.7466 10.631C17.5221 9.11102 17.0651 7.70035 16.4135 6.52418C16.3686 6.44315 16.2938 6.3836 16.2034 6.35782C16.113 6.33204 16.0189 6.34186 15.9359 6.38606C15.7663 6.47752 15.7034 6.68808 15.7963 6.85567C16.5326 8.18469 16.999 9.81635 17.148 11.5855C16.1579 10.9176 15.4452 9.97289 15.0811 8.84276C14.6883 7.62239 14.7581 6.31424 15.2757 5.1485C17.1966 6.29705 18.1649 8.48303 17.7466 10.631ZM16.3593 18.6438C16.979 17.5701 17.4348 16.3381 17.6836 15.0668C18.5097 15.4731 19.3078 15.9636 20.0597 16.5272C19.4182 17.6352 18.582 18.6051 17.572 19.4123C17.1599 19.1146 16.7621 18.8623 16.3599 18.6444L16.3593 18.6438ZM15.9902 19.2355C16.3119 19.4087 16.6374 19.6106 16.9815 19.8494C16.1124 20.4492 15.1697 20.9083 14.1721 21.2189C14.8386 20.7027 15.4596 20.0268 15.9902 19.2355ZM11.4094 17.3258V13.5487C13.3802 13.5929 15.2719 14.0023 17.0358 14.766C16.8157 16.049 16.3705 17.2828 15.7445 18.346C14.3847 17.715 12.9269 17.3725 11.4094 17.3258ZM11.4094 21.6708V18.0182C12.7935 18.0631 14.1247 18.3718 15.3686 18.936C14.2724 20.5124 12.806 21.5247 11.4094 21.6708ZM11.4094 7.77401V1.40084C12.0883 2.33453 12.4462 3.43028 12.4462 4.58681C12.4462 5.74334 12.089 6.84093 11.4094 7.77401ZM4.96864 11.5849C5.11828 9.81328 5.58465 8.18101 6.32163 6.85198C6.41453 6.6844 6.35155 6.47384 6.18134 6.38238C6.12896 6.35414 6.0716 6.34002 6.01362 6.34002C5.98057 6.34002 5.9469 6.34493 5.91448 6.35414C5.82408 6.37992 5.74926 6.43946 5.70436 6.5205C5.05094 7.69789 4.59267 9.11224 4.36884 10.6365C4.19987 9.77891 4.25037 8.89678 4.52035 8.05762C4.91315 6.83725 5.73429 5.80779 6.83975 5.14727C7.35725 6.31362 7.42771 7.62116 7.0349 8.84153C6.67078 9.97227 5.95813 10.9176 4.96864 11.5849ZM4.43306 15.0668C4.68183 16.3375 5.13761 17.5695 5.75736 18.6438C5.35583 18.8617 4.95804 19.114 4.54529 19.4123C3.53522 18.6051 2.69849 17.6352 2.05754 16.5272C2.80823 15.9649 3.60568 15.4738 4.43306 15.0668ZM6.12585 19.2355C6.65707 20.0268 7.27744 20.7033 7.94396 21.2189C6.94574 20.9083 6.00364 20.4492 5.13387 19.8494C5.47741 19.6106 5.80412 19.4087 6.12585 19.2355ZM5.08024 14.7654C6.84474 14.0017 8.73643 13.5923 10.7067 13.5481V17.3252C9.18908 17.3712 7.73197 17.7144 6.3715 18.3448C5.74676 17.2828 5.30159 16.0483 5.08024 14.7647V14.7654ZM10.7067 18.0176V21.6701C9.31004 21.524 7.84358 20.5118 6.74747 18.9354C7.99135 18.3712 9.32251 18.0624 10.7067 18.0176ZM10.7067 1.40391V7.77094C9.34683 5.8833 9.34683 3.29094 10.7067 1.40391Z" fill="black"/>
<path d="M36.2538 3.09814H36.5948L43.4446 19.7008H39.7809L39.1206 17.9752H33.7274L33.0908 19.7008H29.4041L36.2538 3.09814ZM37.9148 14.9728L36.4358 10.8053L34.9114 14.9728H37.9148Z" fill="black"/>
<path d="M49.1552 19.7008V6.88444H45.1043V3.70276H56.4607V6.88444H52.4098V19.7002L49.1552 19.7008Z" fill="black"/>
<path d="M63.9913 3.68066V16.4964H69.1569V19.7002H60.7366V3.68066H63.9913Z" fill="black"/>
<path d="M79.169 3.09814H79.5101L86.3598 19.7008H82.6961L82.0359 17.9752H76.6426L76.006 19.7008H72.3193L79.169 3.09814ZM80.83 14.9728L79.3511 10.8053L77.8266 14.9728H80.83Z" fill="black"/>
<path d="M90.1126 15.3091C91.9788 16.6087 94.0045 16.6535 94.7552 16.5866C95.711 16.519 96.5303 15.8468 96.4392 14.9733C96.3707 14.0543 95.6655 13.651 94.7552 13.3374C92.2063 12.4184 89.9306 11.1415 89.9306 8.4528C89.9306 5.76406 91.8198 3.70331 94.5276 3.56826C95.3699 3.52344 96.4848 3.52344 98.5785 4.24044L98.1688 7.33249C96.3707 6.6155 95.3475 6.63821 94.8462 6.66031C93.6859 6.72783 93.1628 7.55656 93.2307 8.4528C93.3218 9.34905 94.118 9.75236 95.0513 10.066C97.5771 10.985 99.7619 12.419 99.7619 14.9733C99.7619 17.6393 97.8964 19.6786 94.8462 19.8351C93.9359 19.9021 91.9108 19.7903 89.7036 18.67L90.1126 15.3091Z" fill="black"/>
<path d="M112.252 15.3091C114.118 16.6087 116.144 16.6535 116.895 16.5866C117.851 16.519 118.67 15.8468 118.579 14.9733C118.511 14.0543 117.805 13.651 116.895 13.3374C114.346 12.4184 112.07 11.1415 112.07 8.4528C112.07 5.76406 113.959 3.70331 116.667 3.56826C117.51 3.52344 118.624 3.52344 120.718 4.24044L120.308 7.33249C118.511 6.6155 117.487 6.63821 116.986 6.66031C115.826 6.72783 115.302 7.55656 115.37 8.4528C115.461 9.34905 116.258 9.75236 117.191 10.066C119.717 10.985 121.902 12.419 121.902 14.9733C121.902 17.6393 120.036 19.6786 116.986 19.8351C116.076 19.9021 114.05 19.7903 111.843 18.67L112.252 15.3091Z" fill="black"/>
<path d="M126.452 19.7008V3.68066H134.598V6.88444H129.706V10.0882H133.984V13.292H129.706V16.4964H134.871V19.7002H126.451L126.452 19.7008Z" fill="black"/>
<path d="M139.74 19.7008V3.68066H147.886V6.88444H142.994V10.0882H147.272V13.292H142.994V16.4964H148.159V19.7002H139.739L139.74 19.7008Z" fill="black"/>
<path d="M157.876 19.7008H153.029V3.68066H157.876C168.708 3.68066 168.708 19.7008 157.876 19.7008ZM156.283 6.88444V16.4964H157.876C164.202 16.4964 164.202 6.88444 157.876 6.88444H156.283Z" fill="black"/>
</svg>
