<svg width="73" height="46" viewBox="0 0 73 46" fill="none" xmlns="http://www.w3.org/2000/svg">
<path d="M41.4105 29.2977L41.3896 29.28L41.368 29.263C40.1865 28.335 38.7249 27.792 37.0337 27.6019C38.2721 26.9835 39.3069 26.1337 40.0832 25.0908C41.027 23.8228 41.512 22.3171 41.512 20.669C41.512 19.3259 41.1664 18.1278 40.5949 17.0522L40.5761 17.0169L40.5555 16.9826C39.9295 15.9427 39.0764 15.0661 38.0284 14.3466C37.5753 14.0179 36.9859 13.7317 36.4711 13.5162C35.9394 13.2937 35.3741 13.1 34.9157 12.9843C33.6691 12.637 32.4175 12.5 31.033 12.5C29.0732 12.5 27.2809 12.8337 25.754 13.4498C24.1538 14.0795 22.8662 15.0465 21.9439 16.2856L23.1471 17.1812L21.9439 16.2856C20.9847 17.5743 20.5541 19.0873 20.5541 20.669C20.5541 21.9905 20.8336 23.2674 21.547 24.4281C21.7793 24.8284 22.0475 25.1999 22.3472 25.5433C21.9017 25.8872 21.5048 26.2888 21.1645 26.7471C20.285 27.9176 19.8904 29.2771 19.8904 30.7109C19.8904 32.0524 20.1625 33.3424 20.8909 34.4829C21.0494 34.7542 21.2249 35.0087 21.4163 35.2464C21.2151 35.3844 21.0246 35.535 20.8455 35.6991C19.9792 36.4929 19.5 37.496 19.5 38.6448C19.5 39.6759 19.7977 40.6318 20.419 41.4523C21.0248 42.2524 21.8736 42.8396 22.8506 43.2735C24.785 44.1327 27.5027 44.4759 30.7988 44.4759C33.1054 44.4759 35.2516 44.1053 37.1747 43.3329C39.1031 42.5584 40.7009 41.4124 41.8632 39.9061C43.0329 38.3903 43.6592 36.6527 43.6592 34.697C43.6592 32.4903 42.9567 30.6063 41.4105 29.2977ZM28.302 38.6162C27.8232 38.3028 27.6447 38.0271 27.5929 37.7243C28.5994 37.7032 29.7836 37.6258 31.1162 37.4954C31.6394 37.461 32.0557 37.4295 32.3869 37.4044C32.8502 37.3693 33.1469 37.3469 33.3363 37.3469C33.7733 37.3469 34.1121 37.3803 34.36 37.429C34.4735 37.4512 34.56 37.4752 34.6229 37.4968C34.6334 37.5336 34.6472 37.6049 34.6472 37.7249C34.6472 37.9519 34.5762 38.2514 33.9572 38.6311C33.3255 39.0187 32.451 39.2528 31.2282 39.2528C29.8117 39.2528 28.8956 39.0048 28.302 38.6162ZM30.6592 20.669C30.6592 19.055 30.7879 18.0982 30.9777 17.6322C30.99 17.6021 31.002 17.5746 31.0135 17.5495C31.0251 17.5747 31.0371 17.6022 31.0493 17.6322C31.2468 18.117 31.4069 19.0995 31.4069 20.669C31.4069 22.2797 31.2463 23.2606 31.0493 23.7442C31.0369 23.7747 31.0249 23.802 31.0135 23.8265C31.0022 23.8021 30.9902 23.7748 30.9777 23.7442C30.7883 23.2792 30.6592 22.3239 30.6592 20.669Z" fill="#48181C" stroke="#48181C" stroke-width="3"/>
<path d="M41.4513 12.2715C40.6495 13.4528 39.1436 13.9921 38.1117 14.3267C37.3045 14.5884 36.9557 14.835 36.3453 14.4356C35.7348 14.0361 35.8324 13.6252 35.7678 12.793C35.6851 11.7292 35.6125 10.1571 36.4144 8.97582C37.2162 7.79458 38.8089 7.31203 39.8409 6.97748C40.6481 6.71578 40.9099 6.41233 41.5204 6.81177C42.1309 7.21121 42.0333 7.62211 42.0979 8.45429C42.1806 9.51814 42.2532 11.0903 41.4513 12.2715Z" fill="#C39EFF"/>
<path d="M1.90945 6.67126C1.12867 5.9047 0.738281 4.98483 0.738281 3.91165C0.738281 2.83847 1.12867 1.9186 1.90945 1.15205C2.69023 0.38549 3.62717 0.00221252 4.75931 0.00221252C5.8524 0.00221252 6.82838 0.38549 7.60916 1.15205C8.38994 1.9186 8.78033 2.83847 8.78033 3.91165C8.78033 4.98483 8.38994 5.9047 7.60916 6.67126C6.82838 7.43781 5.8524 7.78276 4.75931 7.78276C3.62717 7.78276 2.69023 7.43781 1.90945 6.67126Z" fill="#C39EFF"/>
<path d="M1.67868 27.9401C1.91291 27.3268 2.06907 26.4836 2.06907 25.4105V16.94C2.06907 15.7902 1.91291 14.8703 1.6006 14.257C1.11869 13.3108 1.19238 11.9831 2.15689 11.5389L4.95964 10.2479C7.07426 9.27397 9.48649 10.8187 9.48649 13.1469V25.4105C9.48649 26.4836 9.60361 27.3268 9.87688 27.9401C10.1271 28.6361 9.73546 29.7032 8.99582 29.7032H2.55148C1.79188 29.7032 1.38489 28.6406 1.67868 27.9401Z" fill="#C39EFF"/>
<path d="M12.2939 27.9396C12.5281 27.3263 12.6843 26.4831 12.6843 25.4099V12.6468C12.6843 11.4969 12.5281 10.5771 12.2158 9.96381C11.7339 9.01756 11.8076 7.68986 12.7721 7.24562L15.5749 5.95471C17.6895 4.98074 20.1017 6.52549 20.1017 8.85363V25.4099C20.1017 26.4831 20.2188 27.3263 20.4921 27.9396C20.7423 28.6356 20.3507 29.7026 19.6111 29.7026H13.1667C12.4071 29.7026 12.0001 28.64 12.2939 27.9396Z" fill="#C39EFF"/>
<path d="M1.67868 27.9401C1.91291 27.3268 2.06907 26.4836 2.06907 25.4105V16.94C2.06907 15.7902 1.91291 14.8703 1.6006 14.257C1.11869 13.3108 1.19238 11.9831 2.15689 11.5389L4.95964 10.2479C7.07426 9.27397 9.48649 10.8187 9.48649 13.1469V25.4105C9.48649 26.4836 9.60361 27.3268 9.87688 27.9401C10.1271 28.6361 9.73546 29.7032 8.99582 29.7032H2.55148C1.79188 29.7032 1.38489 28.6406 1.67868 27.9401Z" fill="#C39EFF"/>
<path d="M63.8964 27.8506C64.0525 27.2374 64.1696 26.4325 64.1696 25.3593V16.5843C64.1696 15.3195 63.584 14.6679 62.4909 14.6679C61.7882 14.6679 61.2027 14.9362 60.8123 15.4344C60.8123 15.6644 60.8513 16.0094 60.8513 16.4693V25.3593C60.8513 26.4325 60.9294 27.2374 61.1246 27.8506C61.3247 28.6363 60.8635 29.652 60.0527 29.652H54.2253C53.3927 29.652 52.9081 28.644 53.1606 27.8506C53.3168 27.2374 53.4339 26.4325 53.4339 25.3593V16.6226C53.4339 15.3195 52.8483 14.6679 51.7552 14.6679C51.1306 14.6679 50.584 14.9362 50.1156 15.3961V25.3593C50.1156 26.4325 50.1936 27.2374 50.3888 27.8506C50.5889 28.6363 50.1278 29.652 49.317 29.652H43.1805C42.421 29.652 42.014 28.5894 42.3078 27.8889C42.542 27.2757 42.6981 26.4325 42.6981 25.3593V19.0756C42.6981 17.7724 42.542 16.8142 42.3078 16.1627C41.939 15.2836 42.0838 14.0043 42.969 13.6506L46.9306 12.0679C48.3629 11.4957 49.9204 12.5506 49.9204 14.093C50.4279 13.0964 51.1696 12.2916 52.1456 11.7166C53.0825 11.1801 54.2147 10.8734 55.4639 10.8734C56.7912 10.8734 57.8843 11.1801 58.7432 11.7166C59.6021 12.2916 60.1876 13.0964 60.539 14.1696C61.0855 13.1348 61.8663 12.3299 62.8423 11.755C63.8183 11.1801 64.9114 10.8734 66.1606 10.8734C67.9174 10.8734 69.2447 11.3717 70.1816 12.3299C71.1186 13.2881 71.5871 14.6679 71.5871 16.4693V25.3593C71.5871 26.4325 71.6651 27.2374 71.8603 27.8506C72.0604 28.6363 71.5993 29.652 70.7885 29.652H64.961C64.1284 29.652 63.6438 28.644 63.8964 27.8506Z" fill="#C39EFF"/>
<path d="M40.4415 30.4426C41.5736 31.4008 42.1592 32.819 42.1592 34.697C42.1592 36.3068 41.6517 37.7249 40.6757 38.9897C39.6997 40.2546 38.3333 41.2511 36.6156 41.941C34.8979 42.6309 32.946 42.9759 30.7988 42.9759C27.5586 42.9759 25.0991 42.6309 23.4595 41.9027C21.8198 41.1744 21 40.1013 21 38.6448C21 37.9549 21.2733 37.3417 21.8589 36.8051C22.4444 36.2685 23.2643 35.8852 24.3574 35.6552C23.4204 35.2336 22.6787 34.582 22.1712 33.7005C21.6246 32.8573 21.3904 31.8608 21.3904 30.7109C21.3904 29.5611 21.7027 28.5262 22.3664 27.6447C22.991 26.8015 23.8889 26.1883 25.021 25.8433C24.0841 25.2684 23.3423 24.5402 22.8348 23.6586C22.2883 22.7771 22.0541 21.7806 22.0541 20.669C22.0541 19.3659 22.4054 18.1777 23.1471 17.1812C23.8889 16.1847 24.9429 15.3798 26.3093 14.8432C27.6366 14.3066 29.2372 14 31.033 14C32.3213 14 33.4382 14.1278 34.5313 14.4344C34.5313 14.4344 34.531 14.4341 34.5313 14.4342C34.5318 14.4343 34.5313 14.4335 34.5313 14.4344C34.5313 14.4335 35.4683 14.4344 34.5313 14.4344C34.5313 14.4353 34.5313 14.4353 34.5313 14.4344C34.5313 14.4353 34.5313 14.4347 34.5313 14.4347C34.5313 14.4342 34.1907 14.3494 34.5313 14.4342C35.2765 14.6195 36.5375 15.1115 37.1622 15.5714C38.0601 16.1847 38.7628 16.9129 39.2703 17.7561C39.7388 18.6377 40.012 19.5959 40.012 20.669C40.012 22.0105 39.6216 23.1987 38.8799 24.1952C38.1381 25.1917 37.0841 25.9966 35.7568 26.5332C34.3904 27.0698 32.8288 27.3381 31.033 27.3381C29.3153 27.3381 27.8318 27.1081 26.5045 26.5715C26.0751 26.9165 25.8799 27.3381 25.8799 27.8363C25.8799 28.2963 26.036 28.6796 26.4264 28.9479C26.8168 29.2545 27.3243 29.3695 28.027 29.3695C28.8859 29.3695 30.1351 29.3311 31.7748 29.2161C33.1021 29.1012 34.3904 29.0245 35.6006 29.0245C37.6697 29.0245 39.2703 29.5228 40.4415 30.4426ZM29.5886 17.0662C29.2763 17.8328 29.1592 19.0593 29.1592 20.669C29.1592 22.3171 29.2763 23.5436 29.5886 24.3102C29.9009 25.0767 30.3694 25.46 31.033 25.46C31.6577 25.46 32.1261 25.0767 32.4384 24.3102C32.7508 23.5436 32.9069 22.3171 32.9069 20.669C32.9069 19.0593 32.7508 17.8328 32.4384 17.0662C32.1261 16.2997 31.6577 15.8781 31.033 15.8781C30.3694 15.8781 29.9009 16.2997 29.5886 17.0662ZM34.7418 39.9096C35.6787 39.3347 36.1472 38.6065 36.1472 37.7249C36.1472 37.035 35.9129 36.5751 35.5225 36.2685C35.0931 36.0002 34.3514 35.8469 33.3363 35.8469C32.946 35.8469 32.1652 35.9235 30.994 36.0002C29.4324 36.1535 28.1051 36.2301 27.0511 36.2301C26.6997 36.2301 26.4655 36.2301 26.3093 36.1918C26.1532 36.6134 26.0751 37.035 26.0751 37.495C26.0751 38.4915 26.5435 39.258 27.4805 39.8713C28.4174 40.4845 29.6667 40.7528 31.2282 40.7528C32.6336 40.7528 33.8048 40.4845 34.7418 39.9096Z" fill="#C39EFF"/>
</svg>
