<svg xmlns="http://www.w3.org/2000/svg" xmlns:xlink="http://www.w3.org/1999/xlink" id="_Слой_1" width="128" height="45" data-name="Слой_1"><defs><linearGradient id="_Безымянный_градиент_10" x1="-2.45" x2="69.42" y1="18.65" y2="17.18" data-name="Безымянный градиент 10" gradientUnits="userSpaceOnUse"><stop offset="0" stop-color="#2aa34f"/><stop offset=".43" stop-color="#3c979d"/><stop offset="1" stop-color="#e86ede"/></linearGradient><linearGradient xlink:href="#_Безымянный_градиент_10" id="_Безымянный_градиент_10-2" x1="-2.4" x2="69.47" y1="20.78" y2="19.3" data-name="Безымянный градиент 10"/><linearGradient xlink:href="#_Безымянный_градиент_10" id="_Безымянный_градиент_10-3" x1="-2.4" x2="69.47" y1="20.79" y2="19.31" data-name="Безымянный градиент 10"/><linearGradient xlink:href="#_Безымянный_градиент_10" id="_Безымянный_градиент_10-4" x1="-2.44" x2="69.43" y1="18.9" y2="17.42" data-name="Безымянный градиент 10"/><linearGradient xlink:href="#_Безымянный_градиент_10" id="_Безымянный_градиент_10-5" x1="-2.56" x2="69.31" y1="13.29" y2="11.81" data-name="Безымянный градиент 10"/><linearGradient xlink:href="#_Безымянный_градиент_10" id="_Безымянный_градиент_10-6" x1="-2.39" x2="69.48" y1="21.5" y2="20.03" data-name="Безымянный градиент 10"/><linearGradient xlink:href="#_Безымянный_градиент_10" id="_Безымянный_градиент_10-7" x1="-2.38" x2="69.49" y1="21.69" y2="20.21" data-name="Безымянный градиент 10"/><linearGradient xlink:href="#_Безымянный_градиент_10" id="_Безымянный_градиент_10-8" x1="-2.29" x2="69.58" y1="26.37" y2="24.9" data-name="Безымянный градиент 10"/><style>.cls-1{fill:#5b7a24}.cls-3{fill:#9acf4d}.cls-5{fill:#3e423e}.cls-6{fill:#769f35}.cls-8{fill:#171c14}.cls-9{fill:#fff}.cls-12{fill:#730173}.cls-13{fill:#af68aa}.cls-14{fill:#83ad3a}.cls-15{fill:#727572}.cls-20{fill:#2b590c}.cls-23{fill:#c97dc0}.cls-25{fill:#dcff9f;isolation:isolate;opacity:.46}.cls-26{fill:#d891d3}</style></defs><path d="m.79 23.71.97-.31v-9.89l-.9-.29c-.58-.18-.86-.51-.86-1 0-.22.08-.4.24-.54.16-.14.37-.21.65-.21h4.48c.28 0 .49.07.65.21.16.14.24.32.24.54 0 .51-.29.86-.86 1.04l-.78.25v3.81H10v-3.81l-.78-.25c-.58-.18-.86-.53-.86-1.04 0-.22.08-.4.24-.54.16-.14.37-.21.65-.21h4.5c.28 0 .49.07.64.21.15.14.23.31.23.52 0 .51-.28.85-.84 1.02l-.9.29v9.89l.97.31c.3.1.51.21.62.32.11.12.16.29.16.53 0 .26-.09.47-.26.63-.17.16-.41.24-.73.24H9.38c-.32 0-.56-.08-.74-.25a.796.796 0 0 1-.27-.62c0-.23.05-.41.16-.54.11-.12.32-.23.62-.33l.86-.29v-4.09H4.63v4.09l.86.29c.3.1.51.21.62.33.11.12.16.3.16.54 0 .25-.09.46-.27.62-.18.17-.42.25-.74.25H1.01c-.32 0-.56-.08-.74-.25a.796.796 0 0 1-.27-.62c0-.23.05-.41.16-.53.11-.12.32-.22.62-.32Z" style="fill:url(#_Безымянный_градиент_10)"/><path d="M17.87 19.2h3.65c-.04-1.51-.6-2.27-1.69-2.27-.53 0-.97.2-1.3.59-.34.4-.56.95-.65 1.67Zm4.95 1.57h-5c.18 1.89 1.2 2.84 3.06 2.84.48 0 .94-.06 1.39-.18.46-.12.74-.18.84-.18.46 0 .69.24.69.73 0 .26-.1.49-.31.69-.64.64-1.77.96-3.39.96s-2.85-.44-3.73-1.32c-.89-.88-1.33-2.12-1.33-3.72 0-1.71.47-3.07 1.41-4.06.94-1.01 2.18-1.51 3.71-1.51 1.28 0 2.27.36 2.99 1.09.71.73 1.07 1.77 1.07 3.11 0 1.03-.47 1.55-1.41 1.55Z" style="fill:url(#_Безымянный_градиент_10-2)"/><path d="m25.76 23.73.88-.27v-6.39l-.94-.2c-.5-.09-.76-.37-.76-.82 0-.24.06-.43.17-.56.12-.13.31-.23.58-.32.69-.19 1.37-.28 2.04-.28.5 0 .86.1 1.07.31.21.2.32.54.32 1.02v.57l.04.02c.27-.64.65-1.14 1.13-1.5.48-.36 1.02-.54 1.6-.54.73 0 1.1.37 1.1 1.1 0 .54-.1.98-.31 1.3-.21.33-.45.49-.73.49-.08 0-.23-.04-.46-.12-.22-.08-.39-.12-.5-.12-.64 0-1.17.27-1.59.82v5.22l.98.27c.52.15.78.43.78.84 0 .24-.09.45-.27.61-.18.16-.42.24-.73.24h-4.18c-.31 0-.56-.08-.73-.24a.79.79 0 0 1-.27-.61c0-.23.05-.41.16-.52.11-.12.31-.22.61-.32Z" style="fill:url(#_Безымянный_градиент_10-3)"/><path d="M37 18.06v5.2c.34.26.64.39 1.32.39 1.66 0 2.49-1.14 2.49-3.43 0-1.03-.18-1.81-.55-2.34-.37-.52-.89-.78-1.55-.78-.34 0-.67.08-1 .23-.44.19-.71.72-.71.72Zm-2.78 5.65V12.76l-.82-.18c-.5-.09-.76-.37-.76-.84 0-.24.06-.43.17-.56.12-.13.31-.23.58-.32a7.42 7.42 0 0 1 2-.28c.6 0 1.01.12 1.24.35.23.23.35.65.35 1.24v2.55c0 .56 0 .74-.01 1.35l.11-.11c.68-.63 1.55-.94 2.61-.94 1.24 0 2.21.42 2.91 1.26.7.84 1.05 2.04 1.05 3.62 0 1.81-.5 3.21-1.51 4.21s-2.42 1.5-4.24 1.5c-1.36 0-2.17-.19-2.85-.57-.56-.31-.84-.76-.84-1.33Z" style="fill:url(#_Безымянный_градиент_10-4)"/><path d="M47.03 13.96c.49 0 .9-.16 1.22-.49.33-.33.49-.73.49-1.22s-.16-.89-.47-1.2c-.31-.31-.71-.47-1.2-.47s-.9.16-1.22.49c-.33.33-.49.73-.49 1.22s.16.89.47 1.2c.31.31.72.47 1.2.47Z" style="fill:url(#_Безымянный_градиент_10-5)"/><path d="M53.19 19.2h3.65c-.04-1.51-.6-2.27-1.69-2.27-.53 0-.97.2-1.3.59-.34.4-.56.95-.65 1.67Zm4.96 1.57h-5c.18 1.89 1.2 2.84 3.06 2.84.48 0 .94-.06 1.39-.18.46-.12.74-.18.84-.18.46 0 .69.24.69.73 0 .26-.1.49-.31.69-.64.64-1.77.96-3.39.96s-2.85-.44-3.73-1.32c-.89-.88-1.33-2.12-1.33-3.72 0-1.71.47-3.07 1.41-4.06.94-1.01 2.18-1.51 3.71-1.51 1.28 0 2.27.36 2.99 1.09.71.73 1.07 1.77 1.07 3.11 0 1.03-.47 1.55-1.41 1.55Z" style="fill:url(#_Безымянный_градиент_10-6)"/><path d="m62.44 22.91.22.63c.37.18.89.27 1.57.27 1.09 0 1.63-.35 1.63-1.06 0-.53-.62-.99-1.86-1.39-.49-.15-.89-.29-1.18-.42-.3-.13-.65-.32-1.04-.57-.4-.25-.69-.56-.88-.94-.19-.37-.28-.81-.28-1.32 0-.94.38-1.69 1.15-2.25s1.87-.85 3.29-.85 2.28.21 2.69.61c.21.21.31.56.31 1.06v.1c0 .44 0 .72-.02.86-.04.5-.31.76-.82.76-.41 0-.7-.25-.88-.76l-.21-.59c-.41-.15-.88-.22-1.41-.22-.95 0-1.43.3-1.43.9 0 .48.61.91 1.84 1.31.48.15.87.29 1.19.43.32.14.67.33 1.05.58.38.25.67.57.87.96.2.39.3.84.3 1.36 0 .97-.41 1.75-1.22 2.36-.82.6-1.97.91-3.45.91s-2.42-.22-2.86-.65c-.2-.2-.31-.56-.31-1.06v-.14c0-.44 0-.72.02-.86.04-.5.31-.76.82-.76.41 0 .7.25.88.76Z" style="fill:url(#_Безымянный_градиент_10-7)"/><path d="M62.16 30.5c-1.24-.6-2.64-.79-4.02-.52-.4.08-.8 0-1.14-.22-.81-.52-1.67-.93-2.57-1.25-.28-.1-.25-.49.03-.56.79-.19 1.62-.23 2.43-.14.29.03.4-.38.13-.49-1.46-.59-3.1-.67-4.64-.17a2.279 2.279 0 0 1-1.89-.24c-1.09-.6-1.75-1.78-1.75-3.02v-7.28c0-.6-.11-1.01-.34-1.24-.23-.23-.65-.35-1.24-.35-.72 0-1.43.09-2.12.28-.27.08-.47.19-.58.32-.12.13-.17.32-.17.56 0 .45.25.72.76.82l.94.21v8.05c0 .05 0 .1-.01.16-.16 1.22-.64 2.34-1.42 3.22-.19.21-.44.34-.72.38-.7.09-1.37.27-2.02.52-.45.18-.26.85.22.77.16-.03.32-.05.48-.08.18-.03.29.2.17.33a11.763 11.763 0 0 0-2.74 4.81c-.12.41.47.64.65.25.32-.69.68-1.35 1.08-2 .13-.22.46-.19.55.05.05.15.11.3.15.45.11.33.6.22.56-.12-.03-.25-.06-.5-.11-.75-.12-.7.06-1.41.51-1.96.45-.56.92-1.09 1.42-1.59.3-.31.81-.02.71.4-.28 1.18-.44 2.38-.47 3.59 0 .33.47.39.54.06.22-1.04.49-2.06.83-3.08.09-.29.45-.38.68-.17.08.07.16.15.23.23.13.14.35-.03.25-.19-.1-.17-.22-.33-.34-.48-.25-.31-.32-.73-.17-1.1.08-.19.2-.46.32-.74a1.15 1.15 0 0 1 1.67-.5c.37.23.74.46.99.58.31.15.48.49.39.82-.27 1.05-.06 2.22.41 3.27.1.22.43.13.41-.11-.07-.79 0-1.59.23-2.35.16-.54.74-.84 1.28-.66.29.09.57.2.85.29.37.15.7.39.93.71.83 1.13 1.4 2.42 1.68 3.78.08.36.6.33.64-.04.07-.79-.02-1.59-.27-2.35-.09-.26.21-.48.44-.34 1.67 1.07 3.15 2.43 4.37 4 .19.25.57 0 .43-.28-.69-1.34-1.59-2.56-2.69-3.61-.2-.19-.08-.52.19-.55.92-.09 1.84-.04 2.74.16.31.07.47-.37.17-.52Z" style="fill:url(#_Безымянный_градиент_10-8)"/><path d="M98.52 24.81s.04-.07.05-.11c.16-.33.24-.7.22-1.07 0-.08-.09-.13-.17-.09-.21.13-.41.27-.59.43 0-.03-.01-.06-.02-.09-.02-.09-.14-.11-.2-.05l-.21.21s-.09.12-.16.14c-.07.02-.15.01-.23.03-.03 0-.05.01-.08.02 0-.03.02-.06.03-.09.03-.08.07-.16.1-.24.07-.17.15-.34.22-.51.04-.09-.05-.21-.15-.14-.04.03-.08.05-.12.07.02-.35-.04-.7-.15-1.03 0-.11 0-.22-.14-.23-.06 0-.12.03-.17.07-.02 0-.04.02-.06.04-.18.22-.36.44-.51.68-.09.15-.17.3-.25.46l-.06-.27c-.05-.2-.12-.4-.2-.59-.05-.11-.19-.14-.26-.03-.15.23-.3.46-.43.71-.06.12-.12.25-.17.38-.03.08-.05.24-.16.23-.09 0-.12.09-.11.16.02.1 0 .19.03.28v.45c0 .17-.01.34-.02.5-.11-.07-.21-.18-.29-.29-.12-.16-.23-.33-.38-.46a1.03 1.03 0 0 0-.53-.24c-.11-.02-.21-.02-.32-.02-.05 0-.1 0-.14.01-.06 0-.11.03-.17.04-.13.02-.16.2-.03.24.18.05.29.21.39.36.12.19.24.38.33.58.09.2.15.42.18.64v.11c-.1.02-.17.07-.22.15-.03.04 0 .09.03.11.05.03.08.1.11.15.04.06.08.11.12.17l.21.33c.14.21.29.45.55.53.12.04.25.04.38.06.13.02.25.05.37.09.25.09.48.22.69.39.05.04.1.04.14.02.25 0 .51-.09.72-.22.26-.16.47-.37.66-.61.1-.12.19-.25.27-.38.07-.11.17-.24.14-.38-.02-.06-.05-.11-.11-.14 0 0-.02-.01-.03-.02a.21.21 0 0 1 .04-.06c.09-.14.2-.28.3-.41.23-.3.47-.59.71-.89.08-.1-.02-.24-.14-.18Z" class="cls-3"/><path d="M97.95 25.89c.23-.3.47-.59.71-.89.08-.1-.02-.24-.14-.18.02-.04.04-.07.05-.11.14-.28.22-.59.22-.91-.19.55-.6 1.01-1 1.44.08-.02.16-.03.24-.02-.41.53-.88 1.02-1.39 1.46.11 0 .22 0 .33.01-.44.39-1 .65-1.58.65-.58 0-1.18-.31-1.44-.84.08-.02.16-.04.23-.06-.28-.82-.8-1.56-1.49-2.1h-.09s.04.06.07.07c.18.05.29.21.39.36.12.19.24.38.33.58.09.2.15.42.18.64v.11c-.1.02-.17.07-.22.15-.03.04 0 .09.03.11.05.03.08.1.11.15.04.06.08.11.12.17l.21.33c.14.21.32.67.58.75.12.04.15.05.27.08.13.02.34.15.46.19.25.09.2.09.55.21.06.02.22-.11.26-.13.25 0 .51-.09.72-.22.26-.16.47-.37.66-.61.1-.12.19-.25.27-.38.07-.11.17-.24.14-.38-.02-.06-.05-.11-.11-.14 0 0-.02-.01-.03-.02a.21.21 0 0 1 .04-.06c.09-.14.2-.28.3-.41Z" class="cls-6"/><path d="M95.84 26.44s0-.07-.01-.11c-.02-.06-.03-.1-.07-.15a.925.925 0 0 0-.23-.25c-.06-.04-.15-.12-.29-.17-.2-.07-.4-.05-.52-.02l-.14.03.14.04c.16.04.31.1.45.17.1.05.18.1.23.14h.02c.06.06.13.12.18.18.01.02.03.04.04.06.01.02.02.04.04.06.01.01.02.03.03.04.02.03.04.05.05.07 0 .02.03.03.04.03h.01c.02 0 .04-.03.04-.06v-.06Z" class="cls-20"/><path d="M97.24 25.24s0-.03.02-.04v-.38c0-.17.04-.36.14-.5.06-.09.12-.16.19-.24v-.01c-.04.05-.09.11-.14.12-.07.02-.15.01-.23.03-.03 0-.05.01-.08.02 0-.03.02-.06.03-.09.03-.08.07-.16.1-.24.07-.17.15-.34.22-.51.04-.09-.05-.21-.15-.14-.04.03-.08.05-.12.07.02-.35-.04-.7-.15-1.03 0-.1 0-.2-.11-.23.04.59-.06 1.2-.31 1.74.12-.04.24-.09.35-.13-.13.32-.29.64-.47.93.1-.02.19-.05.29-.07-.14.16-.25.35-.31.55.25-.05.52.02.71.18v-.03ZM96.07 24.08s.03-.09.02-.13c0-.04-.05-.09-.09-.08-.04 0-.08-.03-.09-.07 0-.04 0-.08.01-.13.04-.15.06-.3.07-.46-.01.03-.03.06-.04.08l-.06-.27c-.05-.2-.12-.4-.2-.59-.03-.07-.1-.1-.16-.1.15.62.05 1.29-.17 1.9.09 0 .18-.01.25-.05-.07.28-.09.58-.07.87.13-.06.28-.1.43-.1-.01-.3.03-.6.11-.88Z" class="cls-6"/><path d="M98.97 23.32s-.02-.04-.03-.05a.095.095 0 0 0-.12-.03c-.05.03-.11.06-.16.09-.03.02-.05.03-.08.05-.08.04-.16.09-.23.15h-.01c-.09.07-.18.14-.27.22v-.13c0-.05-.02-.09-.07-.11-.04-.02-.09-.01-.13.02-.08.07-.17.16-.25.25-.06.06-.12.13-.17.21-.04 0-.08.02-.11.03.12-.24.22-.49.32-.73l.04-.09s0-.08-.02-.11c-.03-.04-.08-.05-.12-.04a.72.72 0 0 0-.24.1V22.69c0-.14 0-.27-.03-.4-.01-.08-.03-.17-.06-.25-.03-.1-.07-.21-.19-.22-.04 0-.08 0-.12.03-.14.06-.27.17-.39.28-.13.12-.24.26-.35.41-.09.13-.16.27-.21.42 0-.05-.02-.1-.03-.15-.06-.23-.16-.45-.3-.67-.02-.03-.06-.06-.1-.06-.03 0-.07 0-.09.03-.38.41-.66.96-.77 1.51a.527.527 0 0 0-.25-.11.12.12 0 0 0-.09.05c-.02.03-.02.07 0 .09 0 0 0 .02.01.03s0 .04.01.05c.04.22.04.44.05.66v.41c-.03-.06-.07-.12-.1-.18-.03-.05-.07-.09-.11-.14-.04-.09-.12-.15-.16-.19-.12-.13-.28-.23-.48-.29-.48-.14-.97-.07-1.3.2-.04.03-.06.09-.04.15.01.06.05.1.1.11.14.03.28.11.39.22.03.03.07.07.11.12.08.12.17.24.26.4.12.19.19.34.25.49.03.08.05.16.07.26 0 .04.01.08.02.12-.12-.01-.24-.01-.35.01-.04 0-.08.04-.08.09 0 .05.01.09.05.11.07.04.13.08.19.14.05.06.1.12.14.2.04.07.08.15.12.23.04.09.09.18.14.27.09.15.21.29.34.42.06.06.12.11.21.16.07.05.14.1.24.1.01 0 .03 0 .03-.02 0 0 .01-.02 0-.04-.02-.09-.07-.15-.12-.21v-.02c-.07-.07-.13-.14-.19-.2-.14-.16-.24-.3-.32-.44-.02-.05-.05-.1-.07-.15-.07-.15-.15-.31-.26-.43h.03c.03.01.07.01.1 0s.04-.04.05-.06c.04-.16.01-.36-.07-.6-.06-.19-.16-.37-.29-.58-.1-.17-.22-.34-.34-.5a.976.976 0 0 0-.17-.18h-.01s-.01 0-.02-.01c-.02-.01-.04-.02-.05-.03.25-.09.52-.09.8 0 .09.03.18.06.25.12.08.06.13.14.19.22l.04.06s.06.09.09.13c.02.04.04.07.07.11.02.04.04.07.07.1s.02.05.04.06c.02.03.03.07.05.1.04.07.08.14.14.2.02.02.04.03.06.05 0 0 .02.01.03.02.01.01.02.02.03.02.02.02.06.03.09.02.03-.01.05-.04.06-.07v-1.04c0-.17 0-.34-.02-.5.01.01.03.02.04.03.03.03.08.04.13.03.04-.01.07-.04.07-.08.06-.34.14-.61.25-.85.1-.21.22-.42.39-.62.08.14.14.3.18.46.02.1.04.2.06.32 0 .04.01.08.02.12 0 .07 0 .14-.02.2 0 .08-.02.16-.04.23 0 .02 0 .04-.01.06v.04s-.01.03-.02.04c-.02.03-.02.08 0 .11s.06.05.1.04c.05 0 .09-.02.12-.03l-.09.29c-.07.24-.14.49-.2.73l-.03.11.06-.09c.09-.13.17-.26.25-.4v.08c0 .05.01.09.02.14v.1c0 .02.02.03.03.03s.03-.01.03-.03v-.04c0-.07 0-.14.02-.21 0-.03.01-.05.02-.08l.03-.14c.02-.1.03-.2.05-.3v-.06c.04-.1.15-.41.07-.47-.04-.03-.08-.03-.08-.03-.03 0-.05 0-.08.03l-.02.02v-.02c0-.02 0-.04.02-.06.02-.1.05-.19.08-.29.02-.05.03-.11.05-.16v-.02s.01-.01.01-.02c.06-.14.13-.29.22-.42.08-.13.19-.24.3-.35.06-.06.13-.11.19-.16s.04-.02.05-.02c0 0 .02 0 .03-.01 0 .01.01.03.02.04v.03c.04.06.05.1.07.15h.02-.02c.03.11.04.23.05.36v.55c0 .08-.01.11-.01.13 0 .05 0 .1.03.12.03.02.07 0 .17-.06.03-.02.06-.03.09-.05 0 0 .02-.01.03-.02a6.1 6.1 0 0 1-.38.79v.01c-.01.02-.03.04-.04.06-.01.03 0 .08.03.09.03.01.05 0 .08-.02 0 0 .01 0 .02-.01.01 0 .13-.07.26-.07-.03.02-.05.04-.08.06-.02.02-.09.08-.17.18-.08.1-.14.19-.24.35 0 0 0 .02-.02.03-.01.02-.03.04-.05.06-.03.04-.07.08-.11.13l-.08.08.1-.05s.1-.05.14-.08c0 0 .16-.1.32-.27-.01.09-.02.18-.02.27v.13c0 .02 0 .04.01.06 0 .03.01.06.02.08 0 .02.02.04.04.04s.03-.01.04-.04c0-.03.01-.07.02-.1 0-.01 0-.03.01-.04 0-.03.01-.06.02-.09v-.04c.01-.08.03-.16.05-.25.02-.09.04-.17.06-.25 0-.03.02-.07.03-.1 0-.01.02-.03.04-.04.03-.04.07-.08.12-.12.01-.01.03-.02.04-.03.03-.02.06-.04.06-.07v-.05c0-.02-.02-.04-.05-.06.05-.05.1-.1.15-.14 0 .05.01.09.02.12.01.04.04.08.09.08.05 0 .09 0 .12-.05.16-.21.37-.36.64-.47.04.42-.07.85-.32 1.23-.03.04-.03.08 0 .12.03.04.08.07.13.06.02 0 .05 0 .07-.01-.08.11-.17.22-.27.32-.05.06-.11.12-.16.18-.21.25-.4.54-.59.87-.02.04-.02.1.01.13.02.02.04.03.07.04-.09.12-.17.25-.26.4l-.02.03c-.04.07-.08.14-.13.2l-.02.03c-.06.09-.11.16-.16.22-.17.19-.37.35-.61.47-.13.07-.24.11-.35.15-.03 0-.06.02-.09.03-.04.01-.07.02-.11.04h-.03c-.04.01-.09.02-.12.06l-.02.02.05.02c.07.02.12.05.17.07.01 0 .02.01.04.02h.02c.04 0 .08-.01.12-.02.12-.02.25-.06.4-.13.24-.1.47-.27.67-.47.18-.18.31-.4.43-.62l.03-.05.09-.15c.04-.06.08-.13.12-.2.06-.1.14-.18.23-.25l.04-.03s.04-.05.03-.09c-.01-.03-.05-.06-.08-.06h-.01a.185.185 0 0 0-.07-.02h-.06a6.702 6.702 0 0 1 .59-.76c.17-.19.35-.39.42-.65.01-.05 0-.1-.04-.13a.105.105 0 0 0-.13 0c.11-.22.17-.47.18-.74 0-.07.01-.14.01-.22v-.19c.01-.06.01-.13 0-.19Z" class="cls-20"/><path d="M85.74 29.55c.03-.35.1-.72.27-1.02.1-.16.34-.14.39.05.05.21.13.41.2.62l.15.52c.47.86 1.19 1.45 2.27 1.66-.07.31-.12.6-.18.91.02 0 .03.02.05.02.03-.05.08-.12.12-.17.1-.17.2-.35.3-.52.05-.1.13-.17.29-.14-.07.36-.03.74.07 1.1.03-.09.03-.17.07-.26.08-.28.17-.55.25-.85.05-.16.17-.24.35-.26.12 0 .25-.02.37-.03.74-.1 1.56-.62 1.7-1.64.03-.19.08-.4.12-.59.05-.22.15-.43.3-.6.15-.17.35-.28.59-.26.25.02.39 0 .67.02-.2-.17-.39-.09-.57-.17.05-.16.23-.33.37-.29.29.07.59.1.87.19.47.14.91.33 1.28.67.2.19.22.22.07.5-.29-.16-.54-.38-.89-.38.15.17.32.35.49.5.29.26.44.55.35.98-.05.19-.1.36-.27.48-.3.21-.52.5-.64.86-.07.19-.13.38-.22.55-.18.45-.42.86-.79 1.17-.44.36-.89.72-1.38 1.02-.66.4-1.34.72-2.12.78-.55.03-1.07-.03-1.58-.29-.47-.24-.89-.54-1.26-.91-.39-.36-.74-.76-1.11-1.16-.02-.02-.03-.02-.05-.03-.05-.03-.1-.1-.15-.14-.02-.02-.05-.02-.08-.03a.285.285 0 0 1-.08-.07c-.05-.05-.08-.1-.13-.16-.15-.22-.27-.48-.32-.76-.07-.31-.07-.66-.07-.98-.07-.31-.07-.6-.05-.9Z" class="cls-23"/><path d="M85.85 29.9c.07.17.15.35.24.52.22.43.45.86.76 1.26.49.66.97 1.05 1.24 1.28.42.35.82.59 1.13.76-.03-.09-.05-.22-.05-.4.02-.24.12-.4.17-.48.02.12.08.35.24.57.12.16.24.26.32.33.69.04 2.27-.61 2.99-.93.44-.19.87-.41 1.18-.79.17-.21.3-.45.39-.71.03-.07.05-.16.07-.22.02-.03.02-.05.03-.09v-.02s.02-.03.02-.05c.05-.1.1-.21.17-.29.07-.1.12-.17.2-.28.1-.12.2-.26.27-.4.13-.29.08-.6-.1-.86-.2-.28-.45-.5-.72-.71-.1-.07-.18-.14-.29-.19.07 0 .13 0 .2.02 0 0-.02 0-.02-.02.15.07.3.14.45.19.29.1.67.19.81-.17v-.05c.21.1.39.25.55.41.2.19.2.26.05.53-.29-.16-.52-.41-.88-.41.15.17.32.35.49.5.29.26.44.55.35.97-.05.19-.1.36-.27.48-.3.21-.52.5-.64.85-.07.19-.13.38-.22.55-.18.45-.42.85-.79 1.16-.44.36-.89.71-1.38 1-.65.4-1.34.71-2.12.76-.55.03-1.07-.01-1.58-.27-.47-.24-.94-.55-1.31-.91-.39-.36-.73-.73-1.1-1.12-.02-.02-.03-.02-.05-.03-.05-.03-.07-.1-.12-.14-.02-.02-.03-.04-.06-.06a.285.285 0 0 1-.08-.07c-.05-.05-.08-.1-.13-.16-.15-.22-.27-.48-.32-.74-.07-.31-.07-.66-.07-.97v-.59Z" class="cls-13"/><path d="M92.54 30.43c.17-.31.2-.69.3-1.04.07-.21.15-.4.29-.57.13-.17.34-.26.55-.28.2 0 .4.12.45.33.02.12-.02.24-.07.35-.29.72-.86 1.31-1.48 1.78-.13.1-.27.19-.4.26-.18.09-.4.14-.6.14-.07 0-.15-.02-.15-.09s.07-.1.13-.1c.42-.09.77-.4.97-.78Z" class="cls-26"/><path d="M96.26 28.39c-.1-.07-.17-.14-.2-.16-.3-.19-.45-.28-.64-.36-.67-.29-1.71-.59-1.93-.38-.1.1-.13.21-.13.21-.02.07-.02.12 0 .16-.05.02-.12.03-.22.05-.08.03-.23.09-.4.17-.35.22-.57.55-.64.98-.03.28-.08.53-.15.81-.07.31-.25.53-.52.69-.24.14-.5.24-.77.26-.3.02-.59.07-.82.28-.03.02-.07.05-.1.03-.3-.03-.62.05-.91-.1-.18-.09-.39-.14-.57-.22-.4-.19-.72-.45-.97-.83-.24-.35-.42-.72-.59-1.12-.05-.12-.07-.24-.07-.24l-.07-.33c-.07.09-.15.16-.22.24.05.29.27 1.52 1.34 2.3.5.38 1.02.52 1.34.57-.07.31-.12.6-.18.9.02 0 .03.02.05.02.03-.05.08-.12.12-.17.1-.17.2-.35.3-.52.05-.1.13-.17.29-.14-.07.36-.03.72.07 1.09.03-.09.03-.17.07-.26.08-.28.17-.55.25-.83.05-.16.17-.24.35-.26.12 0 .25-.02.37-.03.74-.1 1.56-.62 1.7-1.62.03-.19.08-.4.12-.59.05-.22.15-.43.3-.6.15-.17.35-.28.59-.26.25.02.52.02.81.03-.2-.17-.44-.21-.62-.29.05-.16.15-.21.29-.17.29.07.59.1.87.19.47.14.91.33 1.28.67.2.19.22.22.07.5-.29-.16-.54-.38-.89-.38.15.17.32.35.49.5.29.26.44.55.35.97-.05.19-.1.36-.27.48-.3.21-.52.5-.64.85-.07.19-.13.38-.22.55-.18.45-.42.85-.79 1.16-.44.36-.89.71-1.38 1-.66.4-1.34.71-2.12.76-.55.03-1.07-.03-1.58-.29-.47-.24-.89-.53-1.26-.9-.22-.22-.54-.54-1.16-1.19-.13-.14-.24-.26-.32-.33 0 .12 0 .24.02.36.49.69.97 1.17 1.34 1.5.62.53 1.09.78 1.21.83.72.4 1.48.48 2.28.29 1.11-.28 2.03-.86 2.94-1.54.59-.45.96-1.04 1.23-1.71.05-.14.12-.29.17-.43.1-.24.27-.45.47-.62.45-.33.6-.97.39-1.48-.02-.03-.03-.07-.05-.1.05-.07.08-.14.13-.22.1-.26.07-.5-.18-.71Z" class="cls-12"/><path d="M87.52 39.7s.02-.05 0-.09c-.37-1.9-1.01-3.73-1.23-5.66-.07-.54-.08-1.07-.07-1.6 0-.07.06-.85.06-.92 0-.02.01-.42.03-.48.07-.31.08-.57.08-.89 0-.17-.02-.74 0-.89-.03-.09-.04-.11-.06-.2-.03-.14-.09-.22-.09-.35-.02 0-.02.02-.03.02.07-.14.12-.28.17-.41.07-.22.08-.5-.12-.67-.07-.05-.15-.05-.2 0-.91.85-2.22 1.24-3.43 1.02-.39-.07-.76-.19-1.14-.19-.44-.22-.86-.48-1.26-.76-.54-.36-.97-.85-1.31-1.4-.08-.14-.17-.29-.2-.47.02-.05.03-.1.05-.16.02-.05.02-.1.02-.16v-.28c.03-.12.1-.22.18-.31.13-.14-.02-.4-.2-.36-.08.02-.15.03-.24.05-.86.03-1.68.19-2.5.48-.49.17-.77.5-.87 1.02-.18.91-.08 1.78.32 2.62 0 .02.02.02.03.03.24-.33.53-.28.69-.63 0 .09.2-.42.2-.31-.05.09-1.03 1.65-1.06 1.74-.24.57-.36.67-.27 1.27.05.29.58.55.63.83.02.14-.02.16 0 .32l.6-.4c-.02.59-.12 1.16-.2 1.74-.03.21-.05.4-.07.6-.02.07-.02.14-.03.19-.05.28-.07.55-.05.85v.03c-.02.17-.02.36 0 .53.02.33.05.67.08 1 .08 1.19.08 2.4.25 3.59.08.55.08 1.09.27 1.62.02.05.03.09.05.14.03.22.24.47.34.66.12.21.24.4.37.59.12.17.25.33.39.48.07.09.13.16.22.22.07.07.13.14.22.19.37.24.82.22 1.24.22s.86-.02 1.29-.05c1.07.03 2.13-.02 3.21-.14.67-.07 1.33-.19 2-.29.52-.09.91-.38 1.23-.78.24-.29.42-.6.5-.98.03-.16.05-.33.05-.48-.03-.66-.03-1.23-.13-1.76Z" class="cls-23"/><path d="M75.09 26.02c.05-.22.12-.45.3-.69.07-.09.25-.29.62-.45.87-.38 2.27-.38 2.5-.38.08-.02.15-.03.24-.05.18-.03.34.22.2.36-.03.03-.07.09-.1.12-.2 0-.42.03-.6.07-.32.05-.64.1-.96.17-.3.05-.59.12-.87.19-.03 0-.08.02-.15.05-.17.07-.29.16-.35.24.12-.03.29-.07.5-.1.2-.03.35-.03.49-.03.72 0 .89-.07 1.85-.05 0 .03-.4.64-.47.67-.05.02-.62.55-1.09.94-.26.21-.52.35-.57.41-.07.07-.9 1-1.03 1.36-.03-.05-.03-.19-.08-.3-.3-.47-.46-.82-.49-1.05-.1-.78.03-1.36.07-1.48Z" class="cls-13"/><path d="M76.25 25.33c.25-.17.54-.31 1.01-.4.71-.14 1.38-.12 1.85-.09.12.09.25.16.37.24-.22.02-.52.02-.89.05-.77.05-1.16.07-1.29.1-.42.12-.79.05-1.38.41-.02 0-.03 0-.07.02.12-.1.24-.22.4-.35ZM85.69 29.21c.24-.35.4-.64.52-.86.08-.17.17-.33.13-.53-.02-.14-.15-.25-.2-.3.03-.07.09-.18.15-.25.05-.07.09-.14.14-.17.08.1.25.34.28.62.05.4-.15.69-.29.88-.24.35-.55.53-.74.62Z" class="cls-12"/><path d="M75.78 24.79c.52-.21 1.06-.36 1.61-.47.54-.1.89-.1.99-.12.29-.02.54 0 .74 0-.02.1-.02.21-.03.31-.45-.02-.84 0-1.13.02-.25.02-1.06.09-1.9.43-.2.07-.4.17-.57.38-.15.17-.24.38-.29.64a4.26 4.26 0 0 0-.03 1.47c.13.74.35 1.07.59 1.4-.74-.53-.82-.88-.89-1.1-.03-.14-.05-.28-.07-.45-.03-.47 0-.91.1-1.36.07-.53.34-.93.87-1.14Z" class="cls-12"/><path d="M78.08 44.2c0 .21.13.31.29.31.64.05 1.28.14 1.92.2.35.02.76.05 1.11.05.59 0 1.22-.04 1.83-.08.82-.03 1.59-.15 2.39-.36.18-.05.39-.13.57-.18.05-.02.13-.07.16-.1.02-.02.01-.13.01-.15-.02-.03-.06-.07-.09-.07-.03-.02-.12-.03-.15-.01-.5.19-1.02.24-1.55.29-1.02.12-2.02.22-3.06.22-.82 0-1.58-.06-2.39-.15-.3-.07-.74-.06-1.02-.09l-.03.11Z" class="cls-23"/><path d="M75.94 33.97c-.05.28-.01.55 0 .85 0 0 .05 1.24.08 1.57.08 1.19.08 2.4.25 3.59.08.55.11 1.16.29 1.7.02.05.03.31.04.36.02.09.03.22.06.31.03.07.05.2.12.31.17.26.3.4.45.52.58.59.67.72 1.09.86.27.09 1.13 0 2.02.04.13 0 .41.05.71.05.27 0 .94-.03 1.42-.03 1.38.02 1.12-.25 2.6-.25.5 0 .76.02 1.11-.14.59-.24.89-.71.97-.83.2-.29.29-.59.32-.78-.1.14-.24.24-.37.33-.03.02-1.17.51-1.23.52-.92.21-1.9.21-2.84.07-.89-.12-1.78-.36-2.6-.74-2.14-.89-3.45-4.4-3.86-7.21-.03-.94-.3-2.97 1.12-5.52-.02.05-.26.17-.28.23-.21.21-.37.42-.52.66-.15.22-.32.96-.41 1.13-.07.28-.45 1.35-.48 1.62-.03.21-.02.73-.04.79h-.05Z" class="cls-13"/><path d="M87.92 40.06c-.02-.29-.07-.53-.12-.76-.18-.88-.39-1.52-.67-2.43-.24-.79-.37-1.19-.4-1.36 0 0-.35-1.47-.35-3.28 0-.31 0-.6.02-.91 0-.16.02-.31.02-.47v-.5s-.02-.02-.02 0c-.03.14-.07.28-.1.41-.03.14-.05.29-.07.45-.03.28-.07.55-.08.85-.03.74.05 1.55.05 1.66.25 2.28.84 4.18.84 4.18.18.62.32.93.44 1.57.13.74.12 1.26.1 1.92 0 .14-.02.29-.05.48-.08.36-.27.69-.5.98-.32.4-.71.71-1.23.78-.66.1-1.33.21-2 .29-1.24.14-2.49.19-3.75.12-.4-.02-.91-.02-1.56-.12-.18-.03-.32-.05-.42-.07-.2-.17-.45-.41-.71-.76-.07-.1-.4-.55-.66-1.23-.22-.59-.3-1.12-.34-1.55a4.018 4.018 0 0 0 .14 1.9c.24.76.82 1.42 1.29 1.85-.02.21-.03.41.08.6 0 0 0 .02.02.03.05.02.13.03.24.05 1.33.26 2.27.26 4.08.26 0 0 2.6 0 4.12-.62.03-.02.27-.1.27-.24 0-.05.02-.14-.07-.29v-.05l.1-.07c.6-.33.92-.9 1.18-1.52.12-.29.12-.59.12-.9.03-.45.02-.85 0-1.24Zm-1.64 3.96s-.08.05-.13.07c-.18.05-.37.12-.55.17-.81.21-1.63.28-2.47.31-.59.03-1.18.02-1.78.02-.35 0-.72.02-1.07 0-.64-.03-1.26-.1-1.9-.17-.15-.02-.17-.05-.17-.24.29.03.57.05.86.09.81.09 1.63.1 2.44.1 1.02 0 2.07-.1 3.09-.21.52-.05 1.06-.09 1.55-.28.03-.02.07-.02.1-.02.03.02.05.05.07.07.02.03 0 .07-.02.09Z" class="cls-12"/><path d="M87.07 40.49c0 .33-.05.69-.27.95-.22.26-.64.35-.86.1-.17-.19-.17-.47-.12-.72.12-.69.42-1.36.42-2.07 0-.1 0-.21.03-.31.18-.64.52.21.57.4.15.53.24 1.09.22 1.66ZM78.69 27.24c-.03.12.02.24.08.35.2.35.54.6.91.76.24.1.5.16.76.17.15.02.44.07.57-.02-.05-.05-.17-.07-.24-.09a3.31 3.31 0 0 1-.42-.12c-.39-.14-.76-.35-1.09-.59-.22-.12-.4-.29-.57-.47Z" class="cls-26"/><path d="M86.24 2.13c.05-.12.12-.26.15-.4s-.05-.19-.13-.22c-.1-.05-.03-.22 0-.33.08-.29.12-.59.12-.88 0-.1-.1-.16-.15-.09-.25.28-.49.57-.72.9-.05-.03-.1-.07-.17-.09-.05-.02-.1.02-.12.09-.12.35-.24.69-.37 1.02-.08-.02-.15.02-.18.14-.05.14 0 .28.07.38.03.05.08.1.12.16.03.07.05.16.1.21.05.05.1.05.15.05h.37s.08.02.13 0c.02 0 .02.02.03 0 .1-.02.18-.05.27-.14.1-.05.18-.12.27-.19.1-.07.02-.26-.08-.19-.02 0-.02.02-.03.02v-.02c.07-.14.13-.28.18-.41Z" class="cls-14"/><path d="M85.17 3.13s.07 0 .1-.02h.12c.1-.36.2-.72.3-1.07.02-.07.03-.14.05-.21h-.02c-.18.41-.37.86-.55 1.29Z" class="cls-20"/><path d="M86.23 2.44c.08-.24.17-.48.24-.72.02-.05.02-.1.03-.14.05-.22.03-.26-.13-.29.03-.28.07-.55.08-.83 0-.07.02-.14.02-.21 0-.22-.12-.33-.27-.19-.17.16-.34.33-.5.52-.07.09-.13.17-.2.28-.02-.02-.03-.02-.05-.03-.1-.07-.13-.07-.18.05-.1.21-.18.41-.27.62-.05.12-.08.24-.12.35-.05.02-.12 0-.15.03-.02.02-.03.05-.03.07 0 .07-.02.16-.02.22v.1l.05.05c.03.03.07.07.08.1 0-.09 0-.17.02-.26.15.02.17.02.2-.16.02-.03.02-.09.03-.12.08-.28.17-.55.3-.81.13.14.15.14.27-.03.08-.14.18-.28.29-.41.12-.14.24-.28.4-.36v.1c-.02.31-.07.62-.13.93-.02.07-.03.16 0 .21.02.05.1.07.17.1-.12.31-.24.64-.35.98.07 0 .12.02.18.02l-.02.02-.02.02-.02.02s-.02.03-.03.05c-.02.03-.05.05-.07.09l-.03.03-.02.02s-.03.03-.03.05c-.02.03 0 .05.02.09.03.05.08.05.12.02l.02-.02h.07s0-.02.02-.02c.05-.05.1-.12.13-.17.02-.03.03-.07.05-.1 0-.02.02-.03.02-.05 0-.12-.02-.16-.15-.21Z" class="cls-20"/><path d="M76.4 9.36c-.05 0-.1-.02-.13-.02-.54-.05-.92.41-.76.95.05.17.15.33.24.47.1.16.12.16.29.09.35-.16.69-.09 1.02.07.08.03.15.1.22.16 0 .02-.02.02-.02.03-.1-.02-.18-.05-.29-.07-.57-.1-1.16.19-1.48.69-.45.71-.5 1.47-.29 2.26.02.05.03.12.05.17.05.38.17.74.39 1.05.1.16.25.31.4.4.05.03.12.07.18.1.18.16.4.26.64.36-.24.12-.42 0-.6-.03-.55 1 .2 2.43 1.53 2.73-.2.14-.4.12-.59.09-.3.28-.25.83.07 1.24.08-.1.17-.21.25-.29.08-.09.15-.21.29-.24-.13.26-.25.53-.39.79-.13.28-.13.55-.1.85.27.1.54.19.82.29.05-.19.1-.38.35-.52-.2.53-.1.98.18 1.38.27.4.67.62 1.18.69-.24.12-.44.1-.66.09-.03.36.2.57.45.76-.29.05-.6-.14-.72-.43-.03-.09-.07-.17-.07-.26.02-.17-.07-.28-.22-.35-.18.17-.39.35-.57.52.03.66.39 1.14.84 1.6-.29 0-.47-.17-.71-.29-.15.31-.13.62.02.9.27.54.66.98 1.16 1.33.99.67 2.05 1.19 3.17 1.54.47.16.96.14 1.43-.03.5-.19.97-.41 1.43-.71.55-.36.91-.86 1.07-1.5.05-.22.12-.45.1-.67.05-.03.08-.1.08-.16-.02-.09-.1-.16-.22-.12.22.03.62.07 1.06-.12.07-.03.29-.12.52-.33.35-.29.54-.66.6-.85.1-.12.13-.22.17-.29.07-.16.03-.22.1-.47 0-.02 0 0 .1-.29.08-.24.12-.36.2-.38h.03l.82-1c.15-.38.34-.95.32-1.67 0-.31-.03-.57-.08-.79a2.72 2.72 0 0 0 .37-1.59c0-.05 0-.12-.02-.19 0-.05-.02-.22-.07-.38-.07-.19-.17-.36-.27-.52.4-.43.67-1.02.72-1.62.05-.59-.07-1.17-.35-1.67.25-.22.3-.66.32-.98.02-.33-.05-.69-.25-.95-.13-.43-.44-.72-1.01-1.02.22-.09.32.02.54.09.08-.41-.03-.91-.25-1.28-.35.33-.76.59-1.21.74.02.16.02.17.03.33-.18-.19-.12-.29-.37-.43-.03.05-.05-.07-.08-.02-.03-.31-.07-.45-.13-.74-.07-.29-.25-.4-.45-.64.3 0 .39.19.55.47.2-.31.49-.74.69-1.04.02-.02.02-.05.03-.05.03-.03-.02.05.02.05s.07.05.08.09c.02.09.03.16.05.28.15-.09.42-.24.54-.35.05-.03.07-.12.07-.19.08-1-.22-1.9-.74-2.74-.24-.38-.5-.74-.84-1.04-.52-.47-1.14-.66-1.81-.71-.59-.03-1.16.05-1.68.33-.05.03-.12.05-.22.1.08-.17.18-.24.3-.33.1-.07.22-.14.34-.21-.35-.5-1.36-.66-1.85-.28.25.29.47.62.52 1.04a.351.351 0 0 1-.08-.1c-.2-.28-.42-.52-.67-.76-.66-.59-1.44-.83-2.28-.74-.71.07-1.28.43-1.63 1.1-.1.19-.15.41-.17.64.2.02.4.02.55.24-.32-.05-.59 0-.79.22-.07.09-.13.17-.12.31.6-.12 1.04.16 1.46.59.18.33.35.45.32.85-.05-.1 0-.1-.05-.19-.25-.48-.64-.78-1.16-.88a.99.99 0 0 0-.76.16c-.3.19-.54.45-.62.83-.02.1-.07.21-.1.33-.27-.52-.03-1.12.57-1.52v-.35c-.3-.09-.59-.07-.87.03-.32.12-.6.29-.86.52-.44.38-.82.79-1.13 1.31-.42.69-.49 1.43-.27 2.21.08.29.2.57.35.83.25-.07.55-.12.82.12Zm1.38-2.02c.02-.09.03-.21.15-.22.1-.02.12.09.15.16.2.38.44.72.71 1.04l.17.17c.02-.1.02-.16.02-.22 0-.09.02-.19.12-.22s.17.02.22.09c.3.33.54.69.54 1.16 0 .05.02.12.02.17.27-.03.52-.09.79.03-.02.02-.05.03-.07.03-.42.09-.77.28-1.11.53-.24.17-.45.38-.47.71 0 .03-.03.07-.07.12-.13-.21-.07-.41-.05-.62-.2-.07-.42-.14-.62-.24a.79.79 0 0 1-.27-.21c-.1-.1-.08-.24.03-.33.05-.05.13-.09.17-.12-.12-.33-.25-.62-.34-.91-.12-.35-.15-.72-.08-1.1Z" class="cls-3"/><path d="m92.46 14.37-.3-.03s.02-.07.03-.09c.1.03.19.07.29.09-.02 0-.02.02-.02.03Z"/><path d="m76.82 21.41.12.24c-.42.05-.81.12-1.21.17 0 .12.03.19 0 .26s-.1.1-.18.12c-.35.1-.69.21-1.01.4-.03.02-.08.07-.12.1.18.17.45.22.67.29.2.05.4.09.6.1.25.03.27.05.22.31.34 0 .67-.03 1.01-.1.05-.02.1-.03.15-.03.13-.03.24.02.3.16.4-.21.77-.47 1.14-.72-.07-.12-.13-.24-.2-.35-.49.14-1.31.1-1.96.16 0-.01 0-.02-.02-.03.08-.02.15-.05.24-.07.47-.1.94-.19 1.39-.29.08-.02.15-.03.22-.07.03-.19-.03-.31-.18-.4-.32-.16-.66-.19-.99-.26-.02-.03-.13.02-.18.02Z" class="cls-14"/><path d="M76.25 18.15c-.12-.22-.24-.48-.34-.69-.67.02-1.23.54-1.23 1.23 0 .21.08.47.13.67.1.5.47.98 1.19.95.3-.02.65-.07.96-.19-.29-.45-.35-.93-.08-1.36-.24-.29-.81-.21-1.04-.07-.12.07-.13.19-.12.31.03.19.08.38.12.57-.07.03-.1-.03-.13-.09-.15-.17-.25-.36-.27-.59-.05-.4.2-.59.81-.74ZM90.63 19.42c.29.07.55.1.84.05.35-.05.66-.22.81-.55.22-.47.22-1.02.1-1.52a.643.643 0 0 0-.24-.38c-.27-.24-.57-.36-.92-.4-.18-.02-.27.12-.37.22.05.16.07.35.12.5.37.09.74.16.77.62.02.26-.2.55-.42.64.03-.17.1-.26.12-.45.03-.24-.02-.29-.24-.38-.07-.03-.15-.03-.25-.07-.07.43-.2.83-.54 1.09.08.21.15.43.22.62Z" class="cls-3"/><path d="M89 24.89c-.13-.09-.29-.17-.4-.24-.13.14-.29.28-.42.43.17.29.32.55.47.83-.02.02 0 .02 0 .03l-.6-.72c-.22.1-.4.19-.62.29.05.16.1.31.15.47.08 0 .17-.03.22 0 .07.03.1.12.13.19.12.19.22.4.34.59.08-.05.15-.14.2-.14.07 0 .13.07.18.12.25.22.49.47.72.69.1.09.24.22.35.31 0-.05.08-.14.08-.17-.12-.4-.3-.83-.5-1.19-.12-.21-.05-.17.18-.22.02 0 .03-.1.07-.1-.07-.12-.17-.26-.25-.38-.12-.17-.25-.35-.39-.52-.15-.12-.1-.12.08-.26ZM73.53 9.76c.55.4 1.14.76 1.8 1.02-.08-.24-.05-.47-.25-.59-.12-.07-.2-.17-.3-.26-.12-.1-.18-.35-.39-.31a.62.62 0 0 1-.27-.02c-.45-.24-.94-.43-1.39-.67-.07-.03-.13-.05-.24-.12.05.09.07.14.1.19.27.36.55.72.82 1.09.1.14.18.26.07.45.13.09.27.17.39.24.1.07.22.1.34.17.24.12.25.17.13.43.3.07.59.09.89.05.05 0 .08-.05.12-.09.07-.07.12-.14.18-.21-.76-.33-1.44-.74-2-1.38ZM76.62 3.57c.29.14.55.26.82.38.03.02.07.03.1.03.3-.03.57.02.82.19.08-.09.15-.17.24-.26-.39-.52-.87-.9-1.46-1.12-.59-.22-1.18-.43-1.78-.64-.13-.05-.27-.1-.4-.14 0 .02-.02.03-.02.03.13.1.25.21.4.31.44.29.89.59 1.33.86.07.03.15.07.15.17s-.1.12-.17.14l-.03.03ZM90.82 7.26c-.08.07-.17.14-.25.21-.35.29-.77.48-1.21.62-.17.05-.2 0-.27-.16-.17.29-.37.64-.55.95.22.03.32-.09.54-.12-.17.22-.24.29-.45.48.07.07.13.14.2.22.91-.5 1.65-1.17 2-2.21ZM88.16 3.15c.18.17.34.31.49.45.05.05.1.07.17.03.2-.07.45-.1.62-.16.03-.12 0-.26.03-.35.08-.22.17-.45.24-.69.03-.12.02-.26.03-.43-.07.05-.08.05-.1.09-.15.19-.34.31-.54.43-.2.1-.39.22-.59.35-.12.09-.24.19-.35.28ZM91.08 14.45c.02-.12.02-.19.02-.21 0-.14-.02-.16-.02-.28 0-.07 0-.16.03-.28.07 0 .13.02.2.02.05 0 .1 0 .17-.02.05 0 .12-.02.2-.05.08-.05.18-.05.27-.02.03-.02.07-.03.12-.03h.08s.08-.02.13-.02c.08 0 .15.05.2.1.02.02.03.05.03.07h.05c.07.02.13.03.2.09.03.03.12.07.13.12l.02.02-.02.02s-.03.05-.02.09l.13.05c.12.05.25.12.37.19.24.14.47.29.64.5.07.07 0 .19-.1.17-.07-.02-.13-.02-.18-.07-.02-.02-.02-.03-.03-.05-.27-.03-.5-.05-.76-.09-.13-.02-.27-.02-.32.16-.13-.03-.25-.07-.37-.09-.03 0-.07-.02-.1-.02-.02.05-.05.12-.1.19-.07.12-.1.19-.12.19-.13.07-.25-.17-.55-.24-.02 0-.1-.03-.2-.07a.287.287 0 0 1-.17-.26c.03-.03.05-.12.05-.19ZM89.59 4.07c-.17 0-.44-.02-.64-.02.08.1.22.26.3.35.13-.09.25-.21.37-.28-.02 0-.03-.03-.03-.05Z" class="cls-14"/><path d="M80.6 9.54c-.42.09-.77.28-1.11.53-.24.17-.45.38-.47.71 0 .03-.03.07-.07.12-.13-.21-.07-.41-.05-.62-.22-.09-.44-.16-.64-.26a.79.79 0 0 1-.27-.21c-.1-.1-.08-.24.03-.33.05-.05.13-.09.17-.12-.12-.33-.25-.62-.34-.91-.12-.36-.13-.74-.07-1.12.02-.09.03-.21.15-.22.1-.02.12.09.15.16.2.38.44.72.71 1.04l.17.17c.02-.1.02-.16.02-.22 0-.09.02-.19.12-.22.1-.03.17.02.22.09.3.33.54.69.54 1.16 0 .05.02.12.02.17.27-.03.52-.09.79.03-.03.05-.05.07-.07.07Zm-2.27.25c.2.07.4.14.59.19.1.03.17 0 .25-.09.13-.12.29-.22.44-.36-.02-.36-.15-.71-.42-1.04-.02.09-.03.14-.05.21-.03.16-.12.21-.25.12-.08-.05-.17-.1-.22-.17-.2-.24-.39-.5-.57-.74-.02-.03-.03-.05-.08-.14v.19c.07.41.18.81.37 1.21.09.2.04.35-.13.47l-.05.05c.07.03.1.09.13.1Z" class="cls-20"/><path d="M78.21 9.69s.07.09.12.1c.2.07.4.14.59.19.1.03.17 0 .25-.09.13-.12.29-.22.44-.36-.02-.36-.15-.71-.42-1.04-.02.09-.03.14-.05.21-.03.16-.12.21-.25.12-.08-.05-.17-.1-.22-.17-.2-.24-.39-.5-.57-.74-.02-.03-.03-.05-.08-.14v.19c.07.41.18.81.37 1.21.09.2.04.35-.13.47 0 .02 0 .03-.03.05Z" class="cls-14"/><path d="M80.16 25.31c.94.14 1.39.74 1.56 1.66.22-.22.22-.45 0-1.05.27-.17.62-.07 1.04.31.02-.5-.69-.83-1.26-.59-.39-.35-.82-.54-1.34-.33Z" class="cls-20"/><path d="M78.53 4.6c.6-.12 1.14.07 1.56.5.34-.62 1.09-.98 1.76-1.07.69-.09 1.51 0 2.05.48.08.07.17.16.24.26.03-.07.08-.14.12-.21.15-.24.32-.47.52-.67.34-.33.79-.52 1.24-.6.65-.12 1.39-.07 2.02.21-.49-.35-1.02-.52-1.63-.55-.59-.03-1.16.05-1.68.35-.05.03-.12.05-.22.1.08-.17.2-.21.32-.29.1-.07.22-.12.32-.19-.35-.5-1.51-.66-2-.26.25.29.45.41.5.83-.03-.03.08.09.07.05-.2-.28-.42-.52-.67-.74-.66-.59-1.46-.86-2.3-.76-.71.09-1.33.43-1.68 1.1-.1.19-.17.48-.17.71.2.02.35-.05.5.17-.32-.05-.52-.05-.72.17-.08.05-.17.26-.15.41Zm1.03-1.19c-.03-.1-.02-.19.03-.28.02-.02.03-.05.05-.07.03-.05.07-.09.1-.14.08-.09.17-.19.27-.26.12-.09.24-.14.37-.17.05-.02.1-.02.17-.03.08 0 .17-.02.25.02.07.03.12.12.08.19-.02.02-.02.03-.05.05-.05.03-.12.07-.17.09-.05.02-.1.05-.15.07h-.02s-.02 0 0 0l.02-.02s-.02.02-.03.02a.21.21 0 0 1-.07.05c-.03.03-.08.07-.12.1-.03.03-.07.07-.12.1l-.02.02v.02l-.05.05c-.03.03-.07.09-.08.12-.05.09-.1.19-.22.19-.1.02-.22-.02-.25-.12Z" class="cls-6"/><path d="M76.13 9.33c-.05 0 .17.02.13.02-.54-.05-1.04.41-.87.95.05.17.15.43.24.57.1.16.2.12.37.05.35-.16.64-.09.97.07.08.03-.02.02.05.07 0 .02.02-.02.02 0-.1-.02.03 0-.07-.02-.57-.1-1.21.16-1.53.66-.45.71-.55 1.48-.34 2.28.02.05.03.19.05.24.03.22.18.4.27.6.05-.09.12-.17.17-.26.1-.16.17-.33.27-.5.12-.21.3-.33.5-.47.2-.12.4-.22.62-.31.12-.05.25-.09.37-.12.03-.48.2-.98.5-1.35.13-.17.3-.33.5-.43.05-.02.1-.03.15-.05-.15-.09-.3-.21-.44-.33a3.19 3.19 0 0 1-.45-.45c-.24-.29-.4-.64-.44-1.02-.03-.6.18-1.23.55-1.69-.02-.17 0-.36.03-.53.02-.09.03-.21.15-.22.1-.02.12.09.15.16s.07.12.1.19c.07-.05.13-.09.22-.12-.02-.03-.03-.07-.05-.1-.07-.19-.12-.36-.12-.57-.02-.31.08-.64.29-.88.35-.43.99-.66 1.53-.43.03.02.05.02.08.03-.24-.28-.54-.45-.92-.52a.99.99 0 0 0-.76.16c-.3.19-.59.33-.67.71-.02.1-.07.22-.1.35-.27-.52.03-.93.64-1.33 0-.1-.02-.31-.02-.43-.3-.09-.59-.07-.87.03-.32.12-.6.29-.86.52-.44.38-.86.78-1.16 1.29-.42.69-.55 1.45-.34 2.23.08.29.22.71.37.97.3-.02.42-.24.69 0Zm.24-3.09c-.12.24-.24.5-.32.74-.05.16-.08.31-.17.45-.03.07-.08.14-.12.19-.02.02-.03.05-.05.09-.02.03-.05.05-.08.07-.03.03-.08.02-.1-.02-.02-.03-.03-.07-.05-.1s-.02-.09-.02-.12c0-.09-.02-.17 0-.26.02-.17.08-.35.13-.5.1-.29.24-.57.39-.83.15-.26.35-.5.6-.66.13-.09.27-.17.4-.24.05-.03.2-.12.27-.07V5l-.05.05-.15.16c-.1.1-.18.22-.27.36-.07.12-.15.22-.22.33-.08.12-.13.24-.2.35ZM76.2 15.8c.18.16.35.21.59.31-.24.12-.39-.07-.57-.1-.55 1 .1 2.52 1.43 2.81-.2.14-.34.03-.52 0-.3.28-.22.91.1 1.33.08-.1.22-.26.3-.35.08-.09-.03-.05.1-.09-.13.26-.12.33-.25.59-.13.28-.18.67-.15.97.27.1.6.19.89.29.05-.19-.02-.29.24-.43-.2.53-.08.9.2 1.29.27.4.5.6 1.01.67-.24.12-.29-.03-.5-.05-.03.36.08.6.34.79-.29.05-.34-.1-.45-.4-.03-.09-.07-.17-.07-.26.02-.17-.07-.28-.22-.35-.18.17-.47.36-.66.54.03.66.25 1.02.71 1.48-.29 0-.35-.12-.59-.24-.15.31-.13.71.02.98.27.53.71 1.09 1.21 1.43.99.67 2.05 1.16 3.17 1.5.47.16 1.02.09 1.49-.09.5-.19.97-.36 1.43-.66.55-.36.89-.97 1.06-1.6.05-.22.12-.45.1-.67.05-.02.08-.07.08-.1 0-.05-.07-.1-.17-.09.45-.02.81-.12 1.01-.21.24-.1.52-.22.79-.52.24-.26.34-.55.39-.71 0-.05.02-.1.02-.16-.12.17-.34.41-.65.64-.34.22-.64.29-.86.35-.22.05-.55.14-1.01.09-.22-.02-.69-.09-1.14-.41-.1-.07-.18-.14-.24-.19-.13.09-.29.14-.42.19-.18.07-.37.12-.57.16-.37.07-.76.09-1.14.05-.71-.07-1.48-.36-1.88-1a2.16 2.16 0 0 1-.3-1.02c-.15-.02-.3-.05-.44-.12-.24-.12-.42-.29-.54-.54-.2-.36-.27-.83-.17-1.23.02-.07.03-.14.07-.21-.07-.09-.12-.16-.17-.26-.2-.38-.25-.86-.17-1.29.02-.1.05-.21.08-.31-.13-.05-.27-.1-.4-.17-.32-.16-.6-.35-.84-.62-.24-.28-.35-.6-.35-.97 0-.24.07-.5.17-.72-.05-.16-.08-.29-.13-.45-.07-.17-.13-.33-.22-.5-.07-.14-.13-.33-.2-.43-.07-.12-.15-.16-.27-.21-.13-.05-.29-.09-.42-.07-.02 0-.05.02-.07.02h-.03s-.03.02-.05.02c.02 0-.03.02-.05.03l-.05.05-.02.02c-.03.05-.07.09-.1.14-.03.05-.05.09-.08.14 0 .02-.02.02-.02.03-.02.03-.03.05-.05.09-.07.12-.12.24-.18.36.07.07.13.17.2.22.1.09.13.17.2.19Zm5.95 10.34s.05-.02.08-.02c.02 0 .05 0 .07.02.05 0 .08.02.13.05.02 0 .03 0 .05.02.05.02.08.05.12.09l.05.05c.02.02.02.03.03.05.02.03.03.05.03.09.02.07-.02.14-.07.17-.02.02-.05.03-.08.03s-.07 0-.1-.02-.07-.03-.1-.05c-.05-.03-.1-.05-.15-.1-.03-.03-.07-.05-.08-.09 0-.02-.02-.02-.02-.03-.02-.03-.05-.07-.05-.1 0-.05.02-.1.08-.16Zm-1.7-.54.12.03c.08.02.15.05.22.09.1.05.18.16.27.24.1.12.2.28.24.45.03.19-.05.41-.25.45-.13.03-.27-.07-.35-.17-.07-.07-.12-.16-.17-.22a.64.64 0 0 0-.13-.19l-.1-.1a.391.391 0 0 1-.13-.28c0-.17.15-.29.3-.29ZM76.62 3.57c.29.14.55.26.82.38.03.02.07.03.1.03.3-.03.57.09.82.26.08-.09.15-.24.24-.33-.39-.52-.82-.93-1.41-1.16-.59-.22-1.23-.4-1.83-.6-.13-.05-.27-.1-.4-.14 0 .02-.02.03-.02.03.13.1.25.21.4.31.44.29.87.66 1.31.93.07.03.17 0 .17.1s-.13.07-.2.09c0 0 .02.07 0 .09Z" class="cls-6"/><path d="M73.65 9.85c.55.64 1.16.93 1.95 1.24-.07.09-.15.21-.22.26-.03.03-.08.09-.12.09-.3.03-.59.02-.89-.05.12-.26.1-.31-.13-.43-.1-.05-.22-.1-.34-.17-.15-.07-.29-.16-.42-.24.12-.19.03-.31-.07-.45-.27-.36-.67-.79-.84-1.09-.05-.09-.07-.16-.08-.19.35.31.79.72 1.16 1.04ZM78.03 7.97v-.1c.15.31.35.6.52.91.12.22.25.41.42.6.12.14.24.26.35.4-.05.03-.1.09-.15.12-.08.07-.15.1-.25.09-.2-.05-.4-.12-.59-.19-.05-.02-.07-.07-.12-.1.02-.02.03-.05.05-.05.18-.11.22-.27.13-.47-.17-.38-.3-.78-.37-1.21ZM76.64 20.17h-.07c-.13 0-.34-.02-.45-.05a.984.984 0 0 1-.35-.19c-.12-.09-.2-.21-.29-.33-.02-.03-.05-.12-.07-.17 0-.02 0-.03-.02-.05 0-.03-.02-.05-.02-.09s-.02-.07-.02-.12v-.07c0-.07 0-.14.02-.21 0-.03.02-.09.02-.12v-.02s0-.03.02-.03c.02-.03.02-.05.03-.09 0-.02.03-.05.02-.05.02-.02.02-.03.03-.03-.03.09-.05.19-.05.31.02.22.13.43.27.59.03.05.07.1.12.09-.05-.19-.08-.38-.12-.57-.02-.12.02-.24.13-.31.24-.16.84-.21 1.07.09-.27.43-.29.9 0 1.35-.1.07-.2.07-.29.09ZM75.23 22.67c.35-.05.69-.1 1.04-.17h.02l.05-.03c.65-.05 1.31-.12 1.96-.17.07.1.07.29.15.41-.37.28-.79.62-1.19.83-.1-.21-.03-.24-.24-.19-.05.02-.12.05-.17.05-.34.07-.67.03-1.01.02.05-.26.03-.28-.22-.31-.2-.03-.4-.05-.6-.1-.2-.05-.4-.1-.57-.24.25-.02.5-.05.77-.09ZM88.03 25.22l.6.72h.02c.12.16.24.31.32.48.15.26.29.53.44.81.07.12.13.26.24.38.02.02.03.1.05.12-.12-.09-.24-.14-.32-.22-.25-.22-.5-.47-.74-.69-.05-.05-.08-.09-.13-.09-.07 0-.13.03-.22.1-.12-.19-.25-.43-.37-.62-.03-.07-.07-.12-.12-.16s-.12.02-.2.02c-.05-.16-.12-.4-.17-.55.17-.12.4-.21.6-.31ZM91.22 17.8c.22.09.32.16.29.4-.02.12 0 .21-.03.33-.12.17-.34.31-.52.45-.1.07-.2.14-.25.26-.02.05-.03.1-.03.16h-.03c-.07-.19-.12-.36-.18-.55.34-.28.47-.66.54-1.09.08.02.17.02.24.05ZM91.12 14.25v-.07l.07.02h.08c.07 0 .13.02.2.02.13.02.25.03.39.05.27.03.54.05.79.1.27.07.54.17.77.31.12.07.23.16.35.22l.17.1c-.07-.02-.12-.02-.17-.07-.02-.02.03.05.02.03-.27-.03-.55-.07-.81-.1-.13-.02-.24.02-.29.19-.13-.03-.29-.09-.4-.1h-.12c-.02.05-.03.02-.08.09-.07.12-.1.19-.12.19-.13.07-.25-.17-.55-.24-.02 0-.1-.03-.2-.07a.287.287 0 0 1-.17-.26c0-.09.02-.16.02-.24.03-.09.03-.16.05-.17ZM89.03 8.88c.08-.05.17-.1.25-.17.24-.17.44-.4.65-.59.22-.19.47-.36.67-.57.05-.05.12-.12.17-.21-.37.98-1.09 1.64-1.98 2.12a1.46 1.46 0 0 0-.2-.22c.15-.12.3-.24.44-.36Z" class="cls-6"/><path d="M84.63 25c-.25.05-.54.09-.89.1-.74.02-1.34-.1-1.73-.22.07.07.17.16.3.24.17.1.49.29.96.4.57.12 1.04.02 1.23-.03.07.03.45.28.99.24.4-.03.66-.22.72-.28-.17.02-.52.02-.92-.1-.32-.1-.54-.26-.66-.35Z" class="cls-1"/><path d="M88.09 4.45c.47.38.64.78.79 1.12.12.26.13.41.07.53-.08.14-.29.21-.44.17-.17-.03-.25-.17-.4-.33-.2-.21-.37-.29-.69-.45-.67-.35-.97-.03-1.56-.38-.17-.09-.5-.28-.5-.55 0-.35.55-.6.62-.62 1.01-.19 2.02.43 2.12.5Z" class="cls-25"/><path d="M77.25 27.05s0-.6.21-.8.65-.22.65-.22l.23.2-.17.25-.58.4-.33.16Z" class="cls-23"/><path d="m78.16 26.09-.03.06a.48.48 0 0 0-.28.03c-.16.07-.23.19-.31.33-.1.18-.23.42-.36.73-.02-.16-.03-.47.1-.78.07-.18.18-.44.48-.58.07-.04.14-.06.21-.07.02.04.05.08.08.12.04.05.07.1.11.15Z" class="cls-12"/><path d="M83.17 4.57c.08.03.17.07.24.12.07.05.12.14.13.22 0 .1-.03.19-.1.26s-.17.1-.25.12c-.42.1-.86-.12-1.29-.17-.08-.02-.17-.02-.24-.05-.27-.1-.22-.48.02-.59.25-.12.62-.1.91-.09.18.05.39.1.59.17ZM88.8 22c-.18.09-.4.12-.55.02-.17-.1-.25-.36-.17-.6.05-.16.18-.26.29-.35.3-.26.62-.52.86-.9.07-.12.13-.24.22-.36.3-.4.62-.02.55.41a2.8 2.8 0 0 1-.59 1.31c-.18.21-.39.36-.6.47Z" class="cls-25"/><path d="M91.08 14.54h-.1c-.27-.03-.55-.1-.82-.19-.52-.14-1.04-.26-1.56-.35-1.04-.19-2.12-.29-3.17-.31-1.02-.02-2.05.05-3.06.24-.5.09-1.01.21-1.49.38-.39.12-.77.28-1.16.4-.42.14-.86.29-1.24.5-.2.1-.35.21-.52.35-.08.07-.15.12-.24.21l-.03.03c.05.14.1.28.17.41.15.33.35.67.54.97.18.31.34.59.55.86.12.14.18.21.32.31.05.05.12.09.18.12 0 0 .02 0 .02.02.02 0 .02.02.03.02.03.02.08.03.12.05.07.03.13.05.22.07h.02s.03 0 .05.02c.05 0 .08.02.13.02.18.02.35.02.54 0 .42-.05.84-.14 1.26-.21.18-.03.39-.07.57-.1.08-.02.15-.03.24-.05.08-.02.12-.03.2-.07.15-.05.3-.12.44-.21l.03-.02s.03-.02.05-.03c.03-.02.05-.03.08-.07.03-.03.07-.05.1-.09l.07-.07c.27-.33.42-.76.55-1.17.13-.43.24-.9.35-1.33.07-.22.37-.19.45-.02.2.47.44.91.76 1.31.27.36.55.72.92 1 .18.14.35.22.57.28 1.57.37 2.06-.13 2.28-.17.27-.07.52-.14.79-.22.13-.05.29-.1.44-.16h.02c0-.12-.03-.24-.07-.36-.07-.19-.17-.36-.27-.52.4-.43.67-1.02.72-1.62-.05-.1-.05-.17-.05-.22Z" class="cls-6"/><path d="M94.39 14.99c-.27-.33-.61-.58-.96-.79-.05-.03-.12-.07-.17-.09.07-.21.07-.26-.15-.31-.2-.05-.39-.09-.54-.12-.02-.02-.03-.02-.03-.03.02-.05.03-.12.05-.17.03-.1-.05-.22-.17-.21-.22.03-.42.09-.64.12-.2.03-.4.07-.6.1-.02-.05-.03-.09-.05-.14-.03-.07-.08-.16-.13-.24l.03-.03c.12-.19.17-.47.2-.69.03-.29.03-.47 0-.71s-.08-.66-.37-1.09c-.12-.17-.23-.29-.32-.36.25-.57.12-1.07-.2-1.52.18-.28.35-.55.52-.83.18-.31.3-.66.39-1.02.02-.05.03-.09.02-.14 0-.05-.03-.12-.05-.12-.05-.02-.12 0-.15.02-.07.03-.1.1-.15.16-.2.22-.45.41-.76.57 0-.5-.02-1-.17-1.47-.13-.47-.35-.91-.6-1.35.05-.02.1-.03.13-.05.32-.12.54-.36.71-.66.03-.05.03-.12.05-.22-.32.12-.6.21-.94.16.07-.05.12-.09.17-.12.1-.1.22-.19.32-.31.08-.1.08-.14-.05-.26.22-.31.29-.67.25-1.05-.02-.14-.03-.28-.1-.41-.05-.12-.15-.1-.2 0-.13.29-.4.47-.66.62-.13.09-.29.14-.42.22-.27.14-.5.33-.66.62-.4-.22-.82-.36-1.28-.41-.44-.05-.87-.02-1.31.1-.24-.47-.64-.66-1.11-.74-.47-.09-.89.02-1.28.31-.32-.24-.67-.41-1.06-.52-.74-.21-1.48-.19-2.17.19-.57.33-.97.79-1.13 1.47-.03-.02-.07-.02-.08-.03-.54-.57-1.21-.9-1.93-1.12-.69-.22-1.38-.43-2.07-.66a.742.742 0 0 0-.25-.05c-.05 0-.12.03-.13.07-.02.02 0 .1.03.14.13.14.27.26.42.38.47.4.99.74 1.53 1.05.07.03.12.07.2.12-.03.02-.05.03-.07.03-.13.1-.15.19-.02.29.2.12.4.22.6.33.07.03.13.05.22.09-.08.05-.15.09-.2.12-.97.55-1.7 1.33-2.05 2.43-.32.97-.15 1.9.37 2.78.02.02.02.03.03.05v.02c-.05.17-.1.34-.17.53-.05-.05-.1-.09-.15-.14-.12-.12-.25-.26-.37-.36-.1-.09-.18-.16-.34-.07-.05.02-.13 0-.18-.03-.44-.22-.89-.47-1.33-.71-.15-.09-.3-.19-.47-.28-.05-.03-.12-.02-.19-.02 0 .07-.02.12 0 .19.03.1.08.21.13.31.24.45.54.86.86 1.26.05.07.1.12.15.17-.08.26-.07.33.13.47.15.1.3.19.47.28.07.03.12.07.2.1-.03.05-.07.07-.08.1-.07.12-.05.22.08.28.12.05.25.09.39.12.15.03.3.03.45.03.07 0 .13.02.2.02 0 .03 0 .05-.02.09-.35.66-.37 1.36-.2 2.07.08.34.17.6.25.78.27.59.64.97.87 1.17-.07.16-.13.36-.17.62-.03.26-.03.48-.03.67-.12.02-.82.09-1.17.67-.2.33-.2.69-.22.93 0 .41.1.72.13.81.2.72.81 1.12 1.53 1.09.35-.02.69-.14 1.04-.26-.03.14-.07.26-.08.38-.02.12-.03.24-.03.38-.05 0-.13.02-.2.02-.22.03-.24.07-.2.28-.29.05-.59.09-.87.14-.05.02-.12.03-.17.05-.24.07-.27.12-.18.34-.29.12-.59.26-.87.38-.07.03-.15.07-.22.12-.22.14-.23.34 0 .47.27.12.57.22.86.31.13.03.27.05.42.09v.09c0 .17.02.21.18.21.27 0 .54-.02.81-.03.15-.02.29-.05.42-.07.05.07.08.16.15.17.07.02.15-.02.24-.03.12-.03.22-.07.35-.12.02.07.03.14.07.21.07.19.15.34.22.47-.1.16-.28.52-.25.97.01.24.09.44.21.63.02.04.05.08.08.12.04.05.07.1.11.15.35.47.76.88 1.25 1.19 1.02.66 2.12 1.16 3.29 1.47.45.12.92.14 1.36-.02.84-.28 1.56-.74 1.91-1.02.08-.07.15-.12.18-.16a.21.21 0 0 0 .05-.07c.17-.22.52-.71.69-1.36.03-.14.08-.34.1-.6.05.03.1.05.12.09.05.12.1.24.15.38.05.12.1.22.17.33.07.12.17.22.32.17.13.21.25.38.37.57.03.05.07.09.12.14.17.17.25.17.44.02.17.16.34.33.52.47.17.12.34.22.52.33.05.03.1.05.17.05.15.02.22-.03.2-.19-.02-.16-.03-.33-.08-.48-.1-.31-.22-.62-.32-.95 0 0 0-.02.02-.02.24-.1.27-.17.13-.41-.13-.24-.3-.45-.45-.67-.05-.07-.1-.12-.15-.17.02-.02.02-.03.03-.03.25-.1.27-.21.05-.4-.08-.07-.17-.12-.25-.19-.08-.05-.15-.1-.24-.16.02-.03.02-.07.03-.12.29-.57.27-1.12.25-1.31.18-.12 1.28-.85 1.55-2.05.12-.55.07-1.02.05-1.14.13.02.27.03.4.03.74.07 1.36-.33 1.58-1.05.12-.4.15-.79.08-1.21-.02-.17-.07-.31-.15-.45-.13-.24-.3-.38-.42-.45-.13-.09-.35-.24-.67-.29-.37-.05-.67.1-.79.17-.03-.07-.07-.14-.1-.19l.03-.03c.17-.28.35-.53.49-.83.05-.12.08-.24.12-.36.05.02.12.03.17.07.08.03.17.09.24.12.08.05.17.12.25.17.08.05.15.14.25.12.02 0 .05 0 .08-.02.1-.05.08-.16.07-.26 0-.05-.02-.09-.03-.16.17.05.3.09.45.14.05.02.1.03.15.05.22.07.27.02.25-.24.08 0 .15 0 .23.02.27.03.54.07.79.12.05 0 .1.02.15.02.07-.02.15-.02.17-.07 0-.1-.03-.19-.07-.22Zm-3.83-7.52c.08-.07.17-.14.25-.21-.37 1.03-1.11 1.71-2.01 2.21a1.46 1.46 0 0 0-.2-.22c.22-.17.44-.34.6-.57-.22.03-.39.19-.62.21.18-.31.35-.62.52-.9.07.14.07.16.24.1.45-.14.87-.33 1.23-.62Zm-.97-3.4s.02.03.02.05c-.12.07-.23.14-.37.22-.07-.1-.13-.17-.22-.28.22-.02.4 0 .57 0Zm-1.08-1.19c.18-.12.39-.22.59-.35.2-.12.4-.24.54-.43.02-.02.05-.03.1-.09-.02.17 0 .31-.03.43-.07.22-.15.47-.24.69-.03.09-.05.17-.1.29-.17.07-.35.14-.55.21-.07.03-.12.02-.17-.03-.15-.14-.3-.29-.49-.45.12-.09.23-.19.35-.28Zm-11.89.69.03-.04c.07-.03.17-.03.17-.14s-.08-.12-.15-.17c-.45-.29-.89-.57-1.33-.86-.13-.09-.27-.21-.4-.31 0-.02.02-.03.02-.03.13.05.27.1.4.14.59.21 1.19.41 1.78.64.59.22 1.07.59 1.46 1.12l-.23.26c-.25-.16-.54-.22-.82-.19-.03 0-.07-.02-.1-.03-.27-.12-.55-.26-.82-.38Zm-2.27 7.81c.12-.26.1-.31-.13-.43-.1-.05-.22-.1-.34-.17-.13-.07-.27-.16-.4-.24.12-.19.03-.31-.07-.45-.29-.36-.55-.72-.82-1.09-.03-.03-.05-.09-.1-.19.1.07.17.1.22.14.45.24.91.48 1.36.72.05.03.12.07.17.05.2-.05.3.1.42.21.1.09.2.19.3.24.22.12.25.33.34.57-.65-.24-1.23-.6-1.76-1 .55.64 1.23 1.07 2.02 1.38-.07.09-.12.16-.18.21-.03.03-.08.09-.12.09-.3.05-.61.03-.89-.03ZM76 20.3c-.74.03-1.09-.47-1.19-.95-.03-.21-.08-.43-.08-.64-.02-.69.49-1.21 1.16-1.23.12.21.22.41.34.64-.61.16-.82.38-.77.76.02.22.13.43.27.59.03.05.08.1.13.09-.05-.19-.08-.38-.12-.57-.02-.12 0-.24.12-.31.24-.16.81-.22 1.04.07-.27.43-.27.88.02 1.33-.32.12-.6.21-.91.22Zm1.36 3.11c-.07-.14-.17-.19-.3-.15-.05.02-.1.03-.15.03-.34.07-.67.12-1.01.1.05-.26.03-.28-.22-.31-.2-.03-.4-.05-.6-.1-.22-.05-.44-.12-.64-.29.05-.03.07-.05.1-.07.32-.17.65-.29 1.01-.4.08-.02.17-.07.22-.12.03-.05 0-.16-.02-.28.39-.05.79-.1 1.23-.16-.05-.09-.07-.16-.12-.26.05-.02.08-.02.1-.02.34.07.69.09 1.01.26.15.09.25.17.2.36-.07.02-.15.05-.22.07-.47.1-.94.19-1.39.29-.08.02-.15.05-.24.07 0 .01 0 .02.02.03.66-.05 1.31-.1 1.96-.16.07.1.12.22.2.34-.37.28-.74.53-1.14.74Zm11.61 1.47c-.18.14-.18.17-.07.33.13.17.27.34.39.52.08.1.13.24.22.36-.03.02-.05.02-.07.02-.23.05-.27.1-.15.33.2.36.32.76.44 1.16.02.03 0 .07-.02.12-.13-.09-.25-.16-.34-.24-.25-.22-.49-.47-.72-.69-.05-.05-.13-.12-.18-.12-.07 0-.12.07-.2.14-.12-.19-.22-.4-.34-.59-.03-.07-.08-.16-.13-.19s-.13 0-.22 0c-.05-.16-.1-.31-.15-.47.22-.1.42-.19.62-.29.2.24.4.48.61.72.02-.02.03-.02.03-.03-.15-.28-.32-.55-.47-.85.13-.16.25-.29.39-.43.12.05.24.12.37.21Zm2.77-6.89c-.03-.48-.39-.59-.76-.67-.02-.12-.05-.28-.12-.45l.02-.02s.03-.03.05-.03c.02 0 .02-.02.03-.02l.03-.02c.08-.03.13-.05.22-.07.05-.02.1-.02.15-.02.29.05.54.17.77.36.12.1.2.22.24.38.12.5.08 1-.13 1.47-.15.33-.44.52-.77.57-.29.05-.55 0-.84-.07-.07-.19-.12-.36-.18-.55.34-.28.47-.66.54-1.09.1.03.17.03.25.07.22.09.27.14.23.38-.02.19-.07.38-.1.55.17-.14.39-.52.37-.78Zm-.91-2.72c-.12.29-.29.54-.47.79a.707.707 0 0 0-.18-.12c-.08-.03-.17-.07-.27-.09-.05 0-.08-.02-.13-.02h-.13s-.02.02 0 .02c.05.02.07.03.1.07.03.03.07.05.1.07.07.05.12.1.18.16.12.1.22.21.3.33.08.14.13.28.18.43.03.1.05.21.08.31.08.5-.05.97-.32 1.4-.1-.1-.2-.21-.3-.29-.02.02-.03.02-.03.03.02.07.05.16.07.22.2.55.3 1.12.29 1.71-.02.41-.08.83-.32 1.19-.59.88-1.38 1.42-2.44 1.5-.25.02-.49.05-.77.09.32.21.64.19.94.19.32 0 .62-.07.96-.12.05.55-.13 1.02-.47 1.43-.55.66-1.26.78-2.07.59.03.05.1.14.2.21.05.03.12.07.22.1v.12c.02.22-.03.45-.1.66-.17.64-.52 1.14-1.07 1.5-.45.29-.92.52-1.43.71-.47.17-.96.19-1.43.03-1.12-.36-2.2-.86-3.17-1.54-.5-.34-.87-.79-1.16-1.33a.956.956 0 0 1-.02-.9c.22.1.4.29.71.29-.45-.47-.81-.95-.84-1.61.2-.17.39-.34.57-.52.15.07.23.17.22.35 0 .09.03.17.07.26.12.28.44.48.72.43-.25-.19-.49-.38-.45-.76.22.02.42.05.66-.09-.52-.07-.91-.29-1.18-.69-.27-.41-.37-.86-.18-1.38-.23.14-.3.33-.35.52-.28-.1-.55-.21-.82-.29-.05-.29-.03-.57.1-.85.13-.26.25-.52.39-.79-.13.03-.2.14-.29.24-.08.09-.17.19-.25.29-.3-.41-.37-.97-.07-1.24.18.03.39.05.59-.09-1.34-.29-2.1-1.73-1.53-2.73.18.03.35.16.6.03-.18-.07-.34-.16-.44-.21-.76-.47-1.04-1.28-1.16-1.6a1.25 1.25 0 0 1-.08-.28c-.22-.79-.15-1.55.28-2.26.32-.5.91-.78 1.48-.69.1.02.18.05.29.07 0-.02.02-.02.02-.03-.07-.05-.13-.12-.22-.16-.34-.16-.67-.22-1.02-.07-.17.07-.18.07-.29-.09-.1-.14-.18-.29-.24-.47-.17-.53.24-1 .76-.95.05 0 .1.02.13.02-.27-.24-.57-.21-.87-.12-.15-.26-.27-.53-.35-.83-.22-.78-.15-1.5.27-2.21.3-.5.69-.93 1.13-1.31.25-.22.55-.38.86-.52.29-.12.57-.12.87-.03v.35c-.6.4-.82 1-.57 1.52.03-.12.07-.22.1-.33.08-.38.32-.64.62-.83.23-.14.49-.19.76-.16.52.09.91.4 1.16.88.05.1.12.21.17.29.02-.4-.08-.76-.35-1.03-.42-.45-.94-.6-1.55-.48-.02-.14.05-.22.12-.31.2-.22.47-.28.79-.22-.15-.24-.35-.22-.55-.24 0-.24.05-.45.17-.64.35-.67.92-1.04 1.63-1.1.86-.09 1.63.14 2.29.74.25.22.47.48.67.76.03.03.07.07.08.1-.05-.41-.27-.74-.52-1.03.49-.38 1.5-.24 1.85.28-.12.07-.22.14-.34.21-.12.07-.22.14-.3.33.1-.05.17-.07.22-.1.52-.28 1.09-.36 1.68-.33.67.03 1.29.24 1.81.71.34.29.6.66.84 1.03.52.83.82 1.73.74 2.74 0 .07-.02.16-.07.19-.12.09-.27.16-.42.26-.02-.12-.02-.21-.05-.29-.02-.05-.05-.1-.08-.1s-.08.03-.12.07c-.02.02-.02.03-.03.05-.2.29-.39.6-.6.91-.17-.26-.37-.45-.67-.47.2.22.42.45.49.76.07.29.08.6.12.91.03-.05.07-.1.1-.16.25.14.34.38.52.59-.02-.16-.05-.31-.07-.47.45-.14.82-.41 1.18-.74.22.36.32.73.24 1.14-.22-.07-.4-.12-.62-.03.57.29.92.67 1.06 1.12.05.17.08.36.1.55.02.21.02.4-.02.6-.02.1-.03.19-.07.29-.02.09-.05.16-.08.22-.07-.03-.13-.07-.2-.1-.1-.05-.2-.1-.29-.14l.12.12c.08.09.18.19.28.31.1.14.15.28.18.36.1.29.15.6.15.91.1.24.08.57-.05.88Zm2.17-.45c-.13-.02-.27-.02-.32.16-.15-.03-.27-.07-.37-.09-.18-.05-.25-.09-.32-.05-.08.05-.08.17-.08.26l-.1-.07c-.15-.1-.34-.19-.5-.24 0-.05 0-.1.02-.14v-.19h.54c.07 0 .13.02.18 0 .05 0 .1-.02.15-.02.12 0 .25-.02.37 0 .02 0 .02-.02 0-.03l-.17-.07-.17-.07-.17-.07c-.05-.02-.13-.02-.18-.03-.12-.02-.25-.02-.37-.03-.07 0-.15-.02-.22 0 0-.1-.02-.21-.03-.29.2-.03.39-.07.59-.1.13-.03.29-.05.42-.09-.02.03-.08.12-.05.19.02.05.1.07.22.1.12.02.27.05.47.05-.07.21.03.26.17.33.25.14.5.31.76.48.03.02.07.07.12.14-.35-.05-.66-.09-.94-.12Z" class="cls-20"/><path d="m75.35 16.27-.1.17c-.07.12-.12.24-.15.38a.73.73 0 0 0 0 .36c.02.07.03.14.05.21-.08.03-.17.1-.25.17-.03.02-.07.05-.1.09-.02-.02-.02-.03-.02-.05-.03-.16-.12-.29-.13-.47 0-.09 0-.19.03-.28 0-.02.02-.02.02-.03.03-.12.1-.24.15-.36.07-.16.1-.45.18-.6.13-.33.22-.64.37-.97.13-.33.37-.69.54-1.05.03.14.12.38.15.48.02.02.03.03.03.07.05.1.03.24 0 .36-.05.19-.15.36-.24.55-.08.19-.18.38-.29.57-.05.09-.1.19-.15.28-.03.02-.07.07-.1.12ZM92.82 12.33c0 .12-.12.17-.22.21-.13.05-.29.12-.42.17-.1.05-.08.17-.12.29-.13.69-.39 1.4-.62 2.05-.13.38-.24.74-.4 1.1-.12.26-.4.38-.69.45-.42.12-.84.24-1.26.33-.4.09-.82.12-1.24.03-.4-.07-.74-.22-1.01-.53-.17-.19-.34-.38-.47-.59-.42-.62-.82-1.26-1.24-1.88a.439.439 0 0 0-.44-.22.53.53 0 0 0-.47.35c-.13.33-.27.66-.39.98-.2.57-.42 1.16-.69 1.69-.29.55-.76.83-1.33.98-.59.16-1.21.1-1.81.1-.55 0-.97-.24-1.28-.71-.02-.02-.03-.03-.03-.05-.52-.76-.97-1.55-1.38-2.4-.07-.14-.15-.22-.3-.26-.13-.02-.27-.03-.4-.07-.05-.02-.15-.03-.17-.09-.07-.17-.17-.35-.15-.55.55-.28 1.14-.45 1.73-.59 1.01-.26 2.02-.43 3.06-.48.96-.05 1.91-.02 2.87.03.35.02.67.02 1.01-.09.42-.12.84-.24 1.26-.35 1.09-.29 2.18-.5 3.31-.59.77-.05 1.53-.05 2.3 0 .32.02.66.09 1.02.14-.03.22-.03.36-.03.52Zm-13.17.85c-.37.07-.74.19-1.11.29-.27.09-.49.22-.66.47-.15.22-.22.41-.17.66.08.41.27.79.47 1.16.3.53.66 1.04 1.04 1.5.22.26.49.4.84.4.49.02.97-.02 1.46-.1.15-.03.3-.07.45-.12.39-.14.67-.38.87-.76.24-.45.39-.93.59-1.38.17-.36.25-.76.3-1.16.05-.38-.08-.62-.42-.83-.34-.21-.69-.26-1.06-.29-.89-.07-1.75.02-2.62.17Zm11.87-.26c-.03-.4-.22-.62-.55-.78-.34-.14-.69-.16-1.04-.16-.87.02-1.76.1-2.62.31-.4.1-.82.21-1.18.43-.18.12-.35.26-.49.43-.17.21-.17.47-.07.72.13.38.3.74.54 1.05.15.21.27.41.42.62.13.19.29.38.42.57.35.48.84.64 1.39.64.57-.02 1.14-.1 1.71-.26.27-.09.45-.31.57-.55.4-.79.71-1.55.84-2.45.02-.05.08-.1.08-.16 0 0-.07-.03-.05-.03 0-.14.03-.26.02-.4Z" class="cls-5"/><path d="M83.36 13.26c.34.21.44.5.39.88-.05.4-.15.78-.3 1.16-.2.47-.34.95-.59 1.38-.2.38-.49.62-.87.76-.15.05-.3.09-.45.12-.49.09-.97.12-1.46.1-.34-.02-.62-.14-.84-.4-.39-.47-.74-.97-1.04-1.5-.2-.36-.39-.74-.47-1.16-.05-.26-.02-.48.13-.69.17-.24.4-.4.67-.48.37-.12.74-.21 1.11-.28.87-.16 1.76-.26 2.65-.19.37.02.74.09 1.07.29Zm-4.37.35c-.24.05-.47.17-.69.29-.3.17-.35.35-.25.69.15.55.44 1.04.74 1.5.18.29.4.57.62.86.13.17.3.28.52.33.42.1.84.03 1.28-.02.35-.03.69-.1 1.02-.28.17-.09.3-.21.39-.38.12-.22.24-.43.32-.66.18-.47.34-.95.5-1.42.07-.21.1-.41.07-.6a.56.56 0 0 0-.35-.45c-.3-.14-.64-.19-1.07-.22-1.01-.03-2.05.1-3.09.35ZM91.56 13.35c0 .05 0 .1-.02.16-.15.88-.47 1.71-.87 2.5-.13.24-.34.41-.6.5-.55.17-1.13.26-1.71.26-.55.02-1.04-.16-1.39-.64-.13-.19-.29-.38-.42-.57-.15-.21-.27-.41-.42-.62-.24-.33-.4-.69-.54-1.05-.08-.24-.1-.52.07-.72.13-.17.3-.31.49-.43.35-.24.77-.35 1.18-.43.86-.21 1.73-.29 2.62-.31.35-.02.71.02 1.04.16.34.14.57.38.6.78.02.14 0 .29-.02.43.02.02 0 .02 0 0Zm-2.79-.95c-.62.07-1.23.16-1.83.35-.3.1-.6.22-.86.41-.15.12-.25.29-.25.47s.07.36.15.53c.07.16.17.29.25.45.22.33.42.66.64.98.08.12.18.24.29.36.27.36.64.48 1.06.5.47.02.96-.05 1.41-.17.18-.05.37-.14.54-.22.15-.07.24-.22.3-.36.3-.62.54-1.28.69-1.95.05-.24.08-.48.1-.72.03-.26-.08-.43-.32-.52-.2-.07-.4-.12-.5-.14-.62-.07-1.14-.02-1.66.03Z" class="cls-8"/><path d="M82.05 13.26c-.97-.03-2.02.1-3.06.35-.24.05-.47.17-.69.29-.3.17-.35.35-.25.69.15.55.44 1.04.74 1.5.18.29.4.57.62.86.13.17.3.28.52.33.42.1.84.03 1.28-.02.35-.03.69-.1 1.02-.28.17-.09.3-.21.39-.38.12-.22.24-.43.32-.66.18-.47.34-.95.5-1.42.07-.21.1-.41.07-.6-.03-.21-.13-.43-.34-.52-.35-.14-.69-.12-1.13-.16ZM90.45 12.35c-.62-.05-1.16 0-1.68.05-.62.07-1.23.16-1.83.35-.3.1-.6.22-.86.41-.15.12-.25.29-.25.47s.07.36.15.53c.07.16.17.29.25.45.22.33.42.66.64.98.08.12.18.24.29.36.27.36.64.48 1.06.5.47.02.96-.05 1.41-.17.18-.05.37-.14.54-.22.15-.07.24-.22.3-.36.3-.62.54-1.28.69-1.95.05-.24.08-.48.1-.72.03-.26-.08-.43-.32-.52-.18-.09-.39-.12-.49-.16Z" class="cls-5"/><path d="M78.3 13.92c.22-.12.45-.24.69-.29.27-.07.55-.12.82-.17.05.03.1.09.13.12.17.14.32.28.47.43.5.5.97 1.04 1.41 1.59.22.28.44.55.64.85.03.05.08.12.12.17-.08.17-.22.29-.39.38-.32.17-.66.24-1.02.28-.13-.21-.27-.41-.4-.62-.12-.17-.24-.36-.37-.54-.37-.48-.77-.93-1.19-1.36-.2-.21-.42-.43-.66-.62-.08-.07-.18-.14-.25-.21-.02 0-.03 0 0 0ZM86.94 12.75c.18-.05.37-.1.57-.16.57.4 1.24.93 1.91 1.66.44.47.79.93 1.07 1.36-.02.02-.02.05-.03.07-.07.14-.15.29-.3.36-.17.09-.35.17-.54.22-.13.03-.29.07-.42.09-.42-.69-.82-1.23-1.14-1.6-.25-.31-.49-.59-.84-.93-.3-.29-.62-.53-.94-.78.2-.12.44-.22.65-.29Z" class="cls-15"/><path d="M74.39 17.16s.02.14.03.24c.03.12.03.21.2.41.03-.03.03-.05.08-.09.03-.03.08-.1.12-.12-.08-.14-.13-.24-.13-.54 0-.21.08-.36.1-.45.18-.57.42-1.12.66-1.67.13-.33.32-.64.49-1 .05.17.08.31.13.43.02.05.03.09.03.12 0 .09-.03.14-.05.16-.42.76-.6 1.17-.96 1.98-.05.12-.15.35-.1.62.02.14 0 .14.05.19.03-.03.08-.05.13-.1.05-.03.13-.05.18-.09-.02-.07-.02-.09-.02-.22 0-.19.07-.33.17-.53.07-.14.18-.36.3-.66.03-.07.05-.14.08-.21.03-.07.07-.14.1-.21.02-.03.03-.07.05-.1.13-.24.27-.47.4-.71.12.02.24.02.35.03.12.02.17.09.22.19.2.43.39.86.6 1.28.29.57.6 1.1 1.02 1.57.27.29.59.47.99.48.62.05 1.24.03 1.86-.05.45-.07.89-.21 1.28-.47.4-.26.66-.67.86-1.1.34-.71.59-1.45.76-2.23.02-.05.02-.1.05-.16.05-.1.13-.19.27-.19.13-.02.17.1.2.19.29.67.69 1.28 1.11 1.86.18.26.42.48.64.72.22.22.5.38.81.45.3.07.62.1.94.1.35 0 .87-.05 1.49-.24.6-.19.91-.28 1.16-.5.27-.24.44-.54.84-2.05.15-.59.29-1.07.37-1.42.02-.16.07-.22.1-.24.03-.03.05-.03.27-.1.05-.02.07-.03.08-.03.32-.12.37-.21.39-.55v-.33c0-.24-.07-.35-.3-.4-.94-.21-1.39-.16-1.39-.16-.76 0-.54-.02-.86 0-.99.03-1.97.12-3.14.35-.82.16-1.63.4-2.44.66-.3.1-.6.12-.92.1-.65-.03-1.29-.09-1.95-.09-1.06 0-2.1.1-3.14.28-.84.19-1.7.38-2.5.71-.13.05-.27.12-.4.14-.05.02-.1.03-.13.05-.05.03-.08.09-.08.1-.39.67-.77 1.55-.77 1.55-.24.53-.6 1.21-.65 1.59-.05.22-.03.43-.03.43Zm1.91-3.41c.55-.28 1.14-.45 1.73-.59 1.01-.26 2.02-.43 3.06-.48.96-.05 1.91-.02 2.87.03.35.02.67.02 1.01-.09.42-.12.84-.24 1.26-.35 1.09-.29 2.18-.5 3.31-.59.77-.05 1.53-.05 2.3 0 .32.02.62.07.99.12-.02.19-.03.35-.05.5 0 .12-.07.17-.17.21-.13.05-.29.12-.42.17-.1.05-.15.12-.18.24-.13.69-.34 1.36-.57 2.02-.13.38-.29.74-.45 1.1-.12.26-.34.45-.62.52-.42.12-.84.24-1.26.33-.4.09-.82.12-1.24.03-.4-.07-.74-.22-1.01-.54-.17-.19-.34-.38-.47-.59-.42-.62-.82-1.26-1.24-1.88a.439.439 0 0 0-.44-.22.53.53 0 0 0-.47.35c-.13.33-.27.66-.39.98-.2.57-.42 1.16-.69 1.69-.29.55-.76.83-1.33.98-.59.16-1.21.1-1.81.1-.55 0-.97-.24-1.28-.71-.02-.02-.03-.03-.03-.05-.52-.76-.97-1.55-1.38-2.4-.07-.14-.15-.22-.3-.26-.13-.02-.27-.03-.4-.07-.05-.02-.15-.03-.17-.09-.07-.12-.17-.29-.15-.5Z" class="cls-8"/><path d="m78.55 33.4.1-.04-.02-1.09-.1-.03c-.07-.02-.08-.05-.09-.1 0-.02.02-.05.03-.05.02-.02.03-.02.07-.02h.54c.02.02.03.03.03.05 0 .05-.03.09-.08.12l-.08.04v.41l.58-.01v-.41l-.09-.03c-.07-.02-.08-.05-.09-.12 0-.02 0-.05.03-.05.02-.02.03-.02.07-.02h.56c.02.02.02.03.02.05 0 .05-.03.09-.08.11l-.1.04.02 1.09.1.03s.05.02.07.03c.02.02.02.03.02.05 0 .03-.02.05-.03.07-.02.02-.05.04-.08.04h-.45s-.07 0-.08-.02c-.02-.02-.03-.03-.03-.07 0-.02 0-.05.02-.05.02-.02.03-.02.07-.04l.08-.04v-.45l-.58.01v.45l.09.03c.03.02.05.02.07.03.02.02.02.03.02.05 0 .03-.02.05-.03.07-.02.02-.05.04-.08.04h-.45s-.07 0-.08-.02c-.02-.02-.03-.03-.03-.07 0-.02 0-.05.02-.05.05-.02.07-.04.1-.04Z" class="cls-9"/><path d="M80.9 33.03h-.54c.02.22.14.32.34.31.05 0 .1 0 .15-.02.05-.02.08-.02.08-.02.05 0 .07.03.07.08 0 .03-.02.05-.03.07-.07.07-.18.11-.37.11-.17 0-.3-.05-.41-.13-.1-.1-.16-.24-.16-.41 0-.19.04-.35.14-.45.1-.11.23-.18.4-.18.13 0 .25.03.32.11.09.08.12.19.12.34.04.1-.01.17-.13.17Zm-.54-.16h.4c0-.18-.07-.27-.19-.26-.05 0-.1.02-.13.07-.03.04-.07.1-.08.19ZM81.21 33.37l.1-.04v-.71l-.11-.02c-.05-.02-.08-.03-.09-.08 0-.03 0-.05.02-.07.02-.02.03-.04.07-.04a.85.85 0 0 1 .22-.04c.05 0 .1.02.12.03.02.02.03.07.04.12v.07c.03-.07.07-.12.12-.17a.28.28 0 0 1 .17-.05c.08 0 .12.03.12.12 0 .07-.01.1-.03.14-.02.03-.05.05-.08.05-.02 0-.03 0-.05-.02-.02-.02-.05-.02-.05-.02-.07 0-.13.04-.17.09v.59l.11.03c.05.02.08.05.09.08s-.02.05-.03.07c-.02.02-.05.04-.08.04h-.45s-.07 0-.08-.02c-.02-.02-.03-.03-.03-.07 0-.02 0-.05.02-.05.03-.02.07-.02.1-.04ZM82.13 33.34l-.02-1.23-.08-.02c-.05-.02-.08-.03-.09-.08 0-.03 0-.05.02-.07.02-.02.03-.04.07-.04.07-.02.15-.04.22-.04s.12.02.13.03c.02.02.03.07.04.14v.43l.02-.02c.07-.07.17-.11.28-.11.13 0 .24.05.32.13.09.08.12.22.13.39 0 .21-.04.36-.16.47-.1.11-.27.18-.45.18-.15 0-.24-.01-.3-.06-.08-.02-.12-.07-.12-.12Zm.29-.65v.59s.08.05.16.05c.18 0 .27-.13.26-.38 0-.12-.02-.21-.07-.26-.03-.05-.1-.08-.17-.08-.03 0-.07.02-.1.04-.05 0-.08.05-.08.05ZM83.5 32.24c.05 0 .1-.02.13-.05.03-.04.05-.09.05-.14s-.02-.1-.05-.14c-.03-.03-.08-.05-.14-.05s-.1.02-.13.05c-.03.04-.05.09-.05.14s.02.1.05.14c.03.03.08.05.14.05ZM84.69 32.96h-.54c.02.22.14.32.34.31.05 0 .1 0 .15-.02.05-.02.08-.02.08-.02.05 0 .07.03.07.08 0 .03-.02.05-.03.07-.07.07-.18.11-.37.11-.17 0-.3-.05-.41-.13-.1-.1-.16-.24-.16-.41 0-.19.04-.35.14-.45.1-.11.23-.18.4-.18.13 0 .25.03.32.11.09.08.12.19.12.34.02.1-.03.17-.13.17Zm-.54-.16h.4c0-.18-.07-.27-.19-.26-.05 0-.1.02-.13.07-.05.04-.07.1-.08.19ZM85.16 33.18l.02.07s.1.03.17.03c.12 0 .18-.04.18-.12 0-.05-.07-.1-.2-.15-.05-.02-.1-.03-.14-.05-.03-.02-.07-.03-.12-.07-.05-.03-.07-.07-.1-.1a.327.327 0 0 1 .07-.4c.08-.07.2-.09.35-.09s.25.01.29.06c.02.02.03.07.04.12v.12c0 .05-.03.09-.08.09s-.08-.03-.1-.08l-.02-.07a.257.257 0 0 0-.15-.01c-.1 0-.15.04-.15.11 0 .05.07.1.2.13.05.02.1.03.14.05.03.02.07.03.12.07l.1.1c.02.05.04.09.04.15 0 .1-.05.19-.13.26s-.22.11-.37.11-.27-.01-.3-.06c-.02-.02-.03-.07-.04-.12v-.12c0-.05.03-.09.08-.09s.08.02.1.07Z" class="cls-9"/><path d="M85.15 34.04a.61.61 0 0 0-.44-.04c-.05 0-.08 0-.12-.02-.08-.05-.19-.1-.29-.13-.03-.02-.03-.05 0-.07.08-.02.17-.04.27-.02.03 0 .05-.04.02-.05a.665.665 0 0 0-.5 0c-.07.02-.13.02-.18-.01h-.02a.37.37 0 0 1-.19-.32l-.02-.81c0-.07-.02-.12-.04-.14-.02-.02-.07-.03-.13-.03-.08 0-.15.02-.23.04-.03.02-.05.02-.07.04-.02.02-.02.03-.02.07 0 .05.04.09.09.08l.1.02.02.91a.7.7 0 0 1-.14.37c-.02.02-.05.04-.08.04l-.22.06c-.05.02-.03.1.02.09h.05s.03.02.02.03c-.13.16-.23.35-.29.54-.02.05.05.07.07.03.03-.07.06-.16.11-.23.02-.02.05-.02.07 0 0 .02.02.03.02.05.02.03.07.02.07-.02s0-.05-.02-.09c-.02-.07 0-.16.05-.23s.1-.12.15-.18c.03-.04.08 0 .08.05-.03.14-.05.26-.04.4 0 .03.05.03.05 0 .01-.12.05-.23.08-.35.02-.03.05-.04.07-.02.02 0 .02.02.02.02.02.02.03 0 .03-.02-.02-.02-.02-.03-.03-.05-.03-.03-.04-.09-.02-.12 0-.02.02-.05.03-.09.03-.07.12-.11.18-.06.03.02.08.05.1.07.03.02.05.05.05.09-.03.12 0 .24.06.36.02.02.05.02.05-.02 0-.09 0-.17.01-.26.02-.07.08-.09.13-.07.03.02.07.02.08.03.03.02.07.03.1.08.09.12.16.27.19.41 0 .03.07.03.07 0 0-.09 0-.17-.04-.26-.02-.03.02-.05.05-.04.19.12.34.27.48.44.02.03.07 0 .05-.04-.07-.15-.17-.27-.29-.39-.02-.02-.02-.05.02-.07.1-.02.2 0 .3.01.05-.02.07-.07.03-.09Z" class="cls-9"/><path d="M86.36 22.66s-.09.03-.13.04c-.16.05-.32.1-.48.14-.15.04-.3.06-.46.09-.04 0-.08.01-.12.02-.08 0-.15.02-.23.02-.27.02-.55 0-.81-.08-.08-.03-.17-.06-.25-.11.04.06.08.13.13.19.08.08.17.17.27.23.3.18.66.2.74.2.17 0 .61.01.99-.3.18-.15.29-.32.35-.43Z" class="cls-1"/><path d="M86.41 21.16c.04-.19-.06-.41-.3-.39-.08 0-.16.01-.24.02-.24-.1-.5-.11-.75-.12-.29 0-.59 0-.88-.01a5.557 5.557 0 0 1-1.23-.12c-.1-.02-.2-.05-.3-.06-.23-.15-.48.18-.29.4.25.29.55.5.87.72.15.1.29.22.45.3.19.1.39.15.6.17.37.03.75 0 1.12-.08.34-.07.8-.21.98-.54.05-.09.04-.21-.02-.29Z" style="fill:#ee7f7d"/><path d="M88.17 18.66c-.07.09-.15.14-.23.21-.01.02-.03.04-.05.06-.23.11-.47.22-.71.33 0 0-.02 0-.03.01-.04.01-.07.03-.11.04-.19.05-.38.08-.57.12-.52.11-1.05.19-1.59.23-.55.03-1.11.03-1.66 0-.25-.01-.51-.01-.76-.03-.21-.02-.42-.07-.62-.11-.16-.03-.32.16-.22.31.35.51 1.14.46 1.69.49.66.04 1.32.07 1.98.02.64-.06 1.3-.17 1.93-.34.28-.07.67-.2.81-.49.03-.06.03-.14.06-.2.02-.06.08-.12.11-.18.06-.13.05-.27.09-.4.02-.07-.08-.13-.13-.07Z" class="cls-9"/><path d="M82.58 21.06c.17.03.35.07.38.08.42.08.84.16 1.28.15.7-.02 1.49-.11 2.13.24.02-.03.04-.05.06-.08.05-.09.04-.21-.02-.29.04-.19-.06-.41-.3-.39-.08 0-.16.01-.24.02-.24-.1-.5-.11-.75-.12-.29 0-.59 0-.88-.01a5.557 5.557 0 0 1-1.23-.12c-.1-.02-.2-.05-.3-.06-.23-.15-.48.18-.29.4.06.06.11.12.17.18Z" style="fill:#c46565"/><path d="M88.94 18.88a.955.955 0 0 1-.29-.24c-.09-.11-.17-.22-.23-.35-.06-.12-.11-.24-.14-.37 0-.03-.01-.06-.02-.08-.04-.04-.1-.05-.14 0a.35.35 0 0 0-.06.14c-.01.05-.03.09-.03.14-.01.09 0 .19.03.28-.96.56-2.01.77-3.1.86-.54.05-1.09.1-1.64.12-.48.02-.95-.02-1.42-.07.01-.06.02-.12.01-.18 0-.06 0-.12-.02-.18-.02-.05-.05-.1-.07-.15-.02-.05-.03-.1-.07-.14l-.03-.03c0 .15-.07.31-.12.44-.07.16-.16.31-.27.45-.07.1-.16.19-.25.28-.04.04-.11.09-.17.12 0 0 .02.01.03.01.06.01.11.03.18.02.07 0 .13 0 .19-.03.03 0 .07-.02.1-.03.14.26.34.49.53.71.21.24.44.48.68.69.49.43 1.04.79 1.64 1.01 1.35.5 2.6-.55 3.37-1.6.39-.53.72-1.1.94-1.72.03.01.07.03.1.03H88.86c.06 0 .13-.02.14-.09v-.02l-.09-.03Zm-2.71 2.59c-.5.36-1.07.6-1.68.43-.55-.16-1.08-.49-1.52-.85-.15-.12-.29-.25-.42-.38.07 0 .14.01.2.02.29.02.58.03.86.04.56.02 1.13.04 1.7 0h.13c.14.03.23.06.35.14.02.01.05.03.07.04 0 0 .02.02.03.02l.01.01c.05.04.1.08.14.13 0 .01.02.02.03.03.02.03.04.05.05.08.04.06.07.12.1.18 0 .01.02.03.03.04-.03.02-.06.05-.09.07Zm1.55-1.79c-.09.05-.18.09-.27.13-.21.1-.44.18-.67.24-.51.13-1.06.17-1.58.19-.52.02-1.05 0-1.57 0-.27 0-.53-.01-.8-.03-.25-.02-.5-.06-.76-.06-.13-.15-.25-.31-.39-.45 0 0 .01 0 .02-.02v-.01c.49.14 1.02.14 1.51.13.59 0 1.18-.05 1.76-.1 1.09-.09 2.15-.31 3.11-.84-.11.28-.23.56-.37.82Z" style="fill:#26351d"/><path d="M84.57 29.76c-.09 0-.13.06-.14.12-.04.14-.08.28-.1.43-.04.44-.09.88-.1 1.32-.02.56-.02 1.13 0 1.7 0 .42.06.85.2 1.25.01.04.03.08.05.13.18.02.34-.03.52-.12-.01-.09-.01-.18-.03-.26-.26-1.11-.34-2.24-.36-3.37v-1.02c0-.06-.02-.12-.02-.18Z" class="cls-26"/><path d="M84.72 29.34a.289.289 0 0 0-.27-.02c-.09.03-.15.1-.2.19a.61.61 0 0 0-.08.3c0 .03.03.07.06.07s.07-.02.08-.05c0-.05.02-.09.04-.13 0 0 0-.01.01-.02a.42.42 0 0 1 .14-.09c.05-.02.1-.03.15-.01.02 0 .04.01.06.03.02.01.03.03.04.04v.19c0 .04.06.06.1.05.02 0 .03-.03.04-.05v-.09a.396.396 0 0 0-.17-.39Z" class="cls-13"/><path d="M81.23 34.55s-.03-.02-.05-.02c-.18-.02-.27-.13-.28-.31 0-.11-.02-.22-.02-.33 0-.71.06-1.41.12-2.11.02-.21.04-.42.07-.63.05-.28.09-.57.17-.85.05-.18.1-.35 0-.53-.01-.02-.01-.05-.02-.07-.04-.26.08-.48.29-.55.28-.09.6.04.76.31.12.22.06.58-.15.71-.07.04-.08.1-.09.18-.01.5-.04 1-.04 1.5 0 .44.02.88.07 1.32.03.3.11.6.16.9.04.21-.04.34-.22.43-.05.03-.11.05-.16.07 0 .06.02.12.03.18.01.06.03.13.03.19.02.19-.08.3-.27.32-.19.01-.29-.05-.32-.25-.02-.14-.03-.29-.05-.45-.01-.01-.02-.02-.03-.02Zm.75-.36c-.02-.11-.04-.21-.06-.31-.15-.64-.2-1.29-.19-1.94.01-.62.05-1.23.07-1.85v-.12c-.01-.04-.04-.1-.07-.1-.03 0-.09.02-.12.05-.04.05-.07.11-.09.17-.1.28-.15.57-.18.86-.04.41-.08.82-.11 1.23-.04.6-.06 1.2-.08 1.8 0 .09.01.17.02.27.28.08.55.15.8-.05Zm-.21-4.79c-.21-.03-.3.06-.32.31.33-.22.48-.1.62.15.05-.25-.08-.43-.3-.46Zm-.1 5.17c-.08.04-.14.05-.14.07 0 .13-.03.26.08.4.09-.16.02-.3.06-.48Z" class="cls-12"/><path d="M81.67 34.57c-.08.04-.14.05-.14.07 0 .13-.03.26.08.4.09-.16.02-.3.06-.48Z" class="cls-23"/><path d="M81.18 34.24c.28.08.55.15.8-.05-.02-.11-.04-.21-.06-.31-.15-.64-.2-1.29-.19-1.94.01-.62.05-1.23.07-1.85v-.12c-.01-.04-.04-.1-.07-.1-.03 0-.09.02-.12.05-.04.05-.07.11-.09.17-.1.28-.15.57-.18.86-.04.41-.08.82-.11 1.23-.04.6-.06 1.2-.08 1.8 0 .09.01.17.02.27Z" class="cls-26"/><path d="M82.07 29.86c.05-.25-.08-.43-.3-.46-.21-.03-.3.06-.32.31.33-.22.48-.1.62.15Z" class="cls-13"/><path d="M84.02 31.34c-.07.69-.08 1.39-.04 2.08.02.44.08.87.24 1.28.04.1.08.2.17.26.04.03.05.08.07.13.03.09.04.18.08.26.05.12.17.17.31.13.13-.03.19-.11.18-.26 0-.11-.03-.21-.05-.32.02-.01.04-.03.06-.04.08-.04.14-.09.17-.16.03-.06.03-.12.02-.23-.03-.19-.04-.28-.1-.42-.04-.1-.04-.15-.12-.91-.1-.96-.09-.88-.1-.95 0 0-.2-1.68-.07-2.04.02-.07.06-.13.06-.13.16-.15.17-.32.13-.51-.09-.37-.3-.47-.66-.36-.26.08-.4.36-.37.58.02.13.08.23.15.31-.02.12-.04.22-.04.32-.03.33-.05.65-.08.98Zm.78 3.9c-.13-.17-.12-.24 0-.26v.26Zm-.35-5.9c.11-.03.26 0 .34.11.09.11.1.28.01.41 0-.17-.1-.32-.23-.34-.16-.03-.35.12-.36.35-.07-.25.06-.47.23-.53Zm-.21 2.29c.01-.44.06-.88.1-1.32.01-.14.06-.29.1-.43.02-.06.05-.11.14-.12 0 .06.02.12.02.18v1.02c.02 1.13.1 2.26.36 3.37.02.09.02.17.03.26-.17.09-.34.14-.52.12-.02-.05-.03-.09-.05-.13-.14-.41-.19-.83-.2-1.25-.01-.56 0-1.13 0-1.7Z" class="cls-12"/><path d="M84.8 35.24c-.13-.17-.12-.24 0-.26v.26ZM81.49 30.19s.02-.07.04-.11c.02-.06.05-.12.09-.17.03-.03.08-.06.12-.05.03 0 .06.06.07.1.01.04 0 .08 0 .12v.21c-.09-.06-.2-.1-.31-.1ZM84.45 30.41s-.09.03-.13.05c0-.05 0-.1.01-.15.01-.14.06-.29.1-.43.02-.06.05-.11.14-.12 0 .06.02.12.02.18v.48a.257.257 0 0 0-.15-.01ZM73.95 35.44c.05-.56.11-1.13.14-1.69.03-.44.04-.88.02-1.32-.02-.34 0-.66.15-.97.05-.1.09-.21.14-.31.42-.79.85-1.58 1.28-2.37-.07.5 0 1.01.13 1.5.05.21.11.42.19.62.02.23.05.47.11.7l.03.14c.02.09.03.18.03.28 0 .3-.1.6-.16.89-.06.28-.09.56-.12.85-.03.33-.04.66-.03.99 0 .17.02.33.04.5 0 .08.02.15.02.23.17.03.33.12.49.2.07.03.14.06.2.07h.04c.12.03.24.03.37.04h.75c.23 0 .46-.02.69 0 .22.02.41.11.6.23.17.11.34.21.47.36.2.24.34.56.41.87.09.24.19.46.21.72a2.673 2.673 0 0 1-.1 1c-.04.16-.08.32-.11.48-.02.14-.03.27-.05.41-.02.14-.04.29-.11.41s-.18.18-.3.23c-.11.04-.24.05-.36.07h-.1c-.09.02-.19.03-.28.04-.05 0-.09 0-.14.01h-.16c-.35-.1-.72.05-.99.29l-.41.03c-.08.01-.16.02-.24.02-.33.01-.65-.05-.95-.18-.27-.12-.56-.24-.79-.43-.09-.06-.17-.11-.25-.18-.31-.25-.54-.59-.59-.99v-.04c-.09-.2-.15-.42-.2-.65-.2-1.01-.15-2.03-.07-3.05Z" class="cls-23"/><path d="M73.71 35.54c.1-.96.17-1.92.12-2.88-.03-.46.06-.89.27-1.29.02-.05.05-.09.07-.14.13-.26.27-.51.41-.77.08-.13.16-.27.21-.41.03-.04.05-.08.07-.12.18-.33.36-.66.53-.99.16-.31.36-.57.61-.8.04-.04.15-.1.27-.21.14-.13.23-.25.29-.33-.32.54-.53.99-.67 1.32-.1.23-.25.6-.55 1.36-.35.89-.38.81-.5 1.2-.13.45-.16.91-.17 1.38v.23c-.06.19-.05.46-.05.69l-.06.59c-.02.19-.06.4-.07.59v.09c0 .05-.02.1-.02.15-.02.11-.03.21-.05.32-.03.17-.05.34-.07.51.11-.08.21-.14.3-.18.25-.13.56-.25.84-.26-.43.24-.61.6-.69 1.06-.06.33-.04.6.04.92.06-.09.07-.26.1-.37.03-.11.07-.22.12-.33.09-.19.21-.44.38-.58.28-.23.61-.32.95-.4-.17.25-.43.43-.59.7-.11.18-.17.37-.21.58-.06.31-.09.73 0 1.03.11.33.39.65.73.76.43.14.85-.06 1.27-.12.23-.03.48-.04.68.09-.06-.37-.23-.84-.01-1.19.02.28.27.56.45.76.25.26.49.51.77.75.08.07.24.15.28.25.03.08.03.25.03.34 0 .14.11.22 0 .31-.14.11-.22.4-.39.41-.21.02-.41.24-.61.2-.2-.05-.54-.06-.75-.07-.2 0-.37.06-.56.11-.35.09-.76.09-1.11.14-.35.05-1.01-.29-1.31-.49-.17-.12-.3-.39-.45-.54-.21-.21-.46-.44-.59-.71-.12-.26-.16-.56-.17-.86-.02.04-.05.07-.07.11-.02-.13-.04-.26-.05-.39-.09-.84-.09-1.68 0-2.52Z" class="cls-13"/><path d="M76.06 35.43c-.09-.03-.18-.04-.27-.05-.07-.36-.09-.66-.09-.88 0-1.05.34-2.3.4-2.47.05-.15.04-.28 0-.43-.08-.29-.1-.59-.13-.89-.02-.17 0-.35 0-.52h.05c.1.43.2.86.31 1.3.11-.04.13-.13.16-.22.12-.35.23-.69.34-1.04.01-.04.02-.07.05-.15.02.07.04.1.04.13-.01.41-.08.82-.2 1.22-.02.06-.12.19-.21.33-.03.05-.06.08-.07.11-.15.42-.29.94-.38 1.55a7.2 7.2 0 0 0 0 2.03Z" class="cls-12"/><path d="M73.67 35.53c.1-1.02.19-2.03.13-3.05-.01-.22 0-.44.04-.65.06-.33.18-.57.26-.74.54-1.09.93-1.72 1.22-2.28.02-.04.08-.14.15-.28.21-.4.5-.72.87-.98.21-.15.43-.29.65-.43.07-.04.15-.06.23-.09 0 .01.01.03.02.04l-.36.33c-.16.14-.32.29-.48.42-.28.24-.5.54-.67.86l-1.32 2.46c-.05.1-.09.21-.14.31-.15.31-.17.63-.15.97.03.44 0 .88-.02 1.32-.03.56-.1 1.13-.14 1.69-.08 1.02-.13 2.04.07 3.05.08.4.22.76.43 1.09.17.27.44.71.98.99.35.18.66.22.83.24.58.07 1.07-.07 1.15-.1.2-.06.39-.13.59-.17.19-.04.38-.03.57-.02.19.01.39.02.57-.03.15-.04.28-.13.39-.23.11-.11.21-.24.27-.39.07-.16.1-.35.13-.53.08-.39.12-.79.11-1.19-.01-.39-.1-.77-.24-1.13-.12-.31-.29-.59-.55-.8-.04-.02-.08-.05-.12-.07-.08-.04-.15-.07-.24-.1-.13-.06-.28-.1-.43-.12-.33-.05-.67.05-1 .06-.37.02-.75-.06-1.12.02-.17.04-.33.11-.48.2-.14.08-.3.18-.42.29-.13.13-.22.27-.28.44-.03.08-.06.15-.09.23-.04.09-.09.16-.13.24-.03.05-.09 0-.07-.04.07-.16.1-.33.16-.5.05-.15.11-.32.19-.46.2-.32.54-.55.9-.68.06-.02.12-.04.19-.05 0 0-.02 0-.02-.01-.09-.04-.2-.06-.29-.08-.22-.03-.44 0-.65.04-.22.05-.42.14-.62.25-.19.11-.39.26-.46.48-.01.05-.09.03-.07-.02.11-.39.42-.67.76-.85.37-.2.77-.29 1.19-.2.21.05.46.16.6.34.2 0 .4.03.59.03.38 0 .75-.11 1.12-.07.14.02.3.05.44.1.14.04.27.11.39.19.1.06.19.13.28.21.14.12.25.28.33.44.41.76.48 1.63.37 2.48-.05.39-.11.82-.32 1.17-.2.33-.52.58-.91.62-.21.02-.43-.03-.64-.04-.22-.01-.42.04-.63.1-.21.07-.42.14-.64.18 0 0-.31.06-.67.04-.75-.04-1.42-.5-1.6-.63-.37-.34-.66-.75-.89-1.19-.19-.35-.24-.74-.28-1.14-.1-.87-.09-1.74 0-2.61Z" class="cls-12"/><path d="M78.19 37.04a.92.92 0 0 1 .51-.39c.05-.02.11-.03.16-.03.06 0 .14 0 .19.04.04.04.03.09 0 .13-.04.04-.1.05-.15.06-.04.01-.09.02-.13.04 0 0-.02 0-.03.01h-.02c-.02 0-.04.02-.05.03-.02 0-.03.02-.05.03-.01 0-.02.02-.03.02-.03.03-.07.06-.09.09 0 0-.01.02-.02.02-.01.02-.02.03-.03.05l-.06.12v.01c0 .02-.01.03-.02.05-.01.03-.03.05-.05.07-.05.05-.14.02-.16-.04-.04-.11.02-.26.08-.36ZM78.11 38.55c0-.11.02-.22 0-.33 0-.04.06-.05.07 0 .03.09.06.18.08.27.02.08.03.17.05.26.03.18.1.34.21.49.08.1.19.2.3.24.07.03.14.04.2.05.09 0 .18-.02.27 0 .14.03.13.2.04.27-.08.06-.21.06-.31.05-.1 0-.2-.03-.29-.07-.16-.07-.3-.2-.4-.34-.12-.17-.2-.36-.21-.57v-.3Z" class="cls-12"/><path d="M82.44 38.93c.16-.09.31-.22.43-.36.13-.14.24-.29.33-.46.07-.14.13-.32.1-.47a.31.31 0 0 0-.09-.19c-.05-.06-.13-.1-.19-.15-.2.09-.43.14-.64.14 0 .02-.02.05-.03.07-.02.04-.04.08-.07.12-.01.02-.02.03-.03.05 0 .01 0 .03.02.04.02.05.05.11.08.16.06.11.12.21.14.34.02.12 0 .26-.04.37-.02.05-.05.11-.07.16-.03.05-.04.11-.08.16l-.01.01h.15Z" class="cls-3"/><path d="M82.39 36.06c.09.02.09.15 0 .18-.07.02-.14.04-.2.07-.07.03-.13.06-.2.08-.14.04-.29.06-.44.05-.15 0-.31-.02-.46-.04-.16-.02-.32-.04-.47-.1-.02 0-.03-.01-.04-.02a.1.1 0 0 1-.04-.16c.01-.03.04-.05.07-.06.19-.16.32-.38.41-.61.09-.24.09-.5.06-.76-.03-.24-.05-.51-.17-.73-.12-.22-.31-.39-.48-.56-.14-.14-.3-.31-.5-.33.02.15.05.29.06.44.02.19.02.39.01.58-.02.34-.05.69-.13 1.03.02.12-.12.21-.22.12-.01 0-.02-.02-.03-.03v.15c0 .15-.04.29-.08.43-.04.12-.08.23-.13.35-.02.05-.03.1-.05.15-.12.2-.23.41-.33.62 0 .04-.02.08-.04.13-.03.08-.05.17-.07.26-.04.17-.06.32-.06.5 0 .33 0 .67.06.99.13.63.58 1.17 1.19 1.37.15.05.27.1.42.15h.02c.13.03.27.05.4.08.05.01.1.03.15.05 0-.02-.01-.04-.01-.06 0-.13.12-.2.24-.21.1-.01.2 0 .3 0 .15 0 .3 0 .44-.03.29-.04.57-.25.78-.44.19-.17.34-.41.35-.67 0-.08 0-.16-.02-.24 0-.04-.02-.1-.03-.12-.04.05-.08.09-.12.14-.15.15-.39.34-.61.34-.09 0-.14-.14-.05-.18.02-.01.05-.02.07-.03h-.15s-.11 0-.12-.06c-.02-.1.04-.23.06-.33a.47.47 0 0 0 0-.31c-.04-.1-.1-.2-.14-.3a.534.534 0 0 1-.05-.18v-.09c0-.01 0-.02.01-.03.01-.06.04-.12.06-.17 0-.02.01-.04.02-.05v-.17c0-.07-.01-.15-.02-.21a.422.422 0 0 0-.08-.2c-.03-.03 0-.11.05-.09.18.07.29.26.32.44v.03c.22 0 .47-.06.65-.19.09-.06.18-.16.24-.26 0 0 0-.02.01-.02-.03-.02-.07-.03-.1-.04-.07-.02-.11-.1-.07-.17.05-.07.01-.17-.02-.24a.4.4 0 0 0-.13-.18c-.15-.11-.35-.13-.53-.16-.1-.02-.2-.04-.3-.03-.11.01-.24.05-.32.1-.08.04-.16.09-.23.14h-.01c.13 0 .27 0 .39-.03.13-.03.26-.1.4-.07Z" class="cls-3"/><path d="M80.84 36.08c.17-.19.34-.4.44-.64.12-.28.09-.6.06-.9-.03-.3-.08-.59-.26-.84-.16-.24-.38-.44-.59-.64-.21-.2-.47-.34-.76-.26-.07.02-.13.11-.1.18.07.2.08.44.09.65.01.21 0 .42 0 .63-.01.19-.04.39-.07.58a.258.258 0 0 0-.16-.06c-.07 0-.13.06-.13.13 0 .14.02.28.02.42 0 .13-.02.25-.06.37-.03.1-.07.19-.1.28-.05.1-.11.19-.16.29-.17.3-.33.62-.41.96-.03.14-.05.29-.05.44-.03.26-.03.51.02.76.01.19.04.37.08.56.09.33.26.63.49.88.2.21.45.38.72.49.18.1.37.16.58.2.16.03.31.05.46.1.13.04.26.1.4.1.07 0 .14-.06.13-.14 0-.07-.03-.12-.06-.17h.32c.17 0 .34 0 .51-.05.16-.04.3-.13.44-.22.27-.18.54-.4.68-.71.1-.23.12-.45.07-.7-.02-.09-.07-.23-.15-.3.12-.18.22-.37.27-.58a.75.75 0 0 0-.05-.51.714.714 0 0 0-.24-.25c.02-.02.04-.03.06-.05.09-.1.23-.25.21-.4-.01-.09-.08-.14-.16-.17.04-.16 0-.35-.07-.48-.1-.18-.29-.28-.48-.32-.19-.04-.41-.05-.61-.05-.21 0-.43.08-.61.19-.11.07-.25.16-.32.28-.07 0-.13-.01-.2-.02-.08 0-.16-.02-.25-.04Zm1.41 1.6s.02-.03.03-.05c.02-.04.05-.08.07-.12.01-.02.02-.05.03-.07.21 0 .44-.05.64-.14.06.05.13.09.19.15.05.06.07.12.09.19.03.15-.03.33-.1.47-.09.17-.2.32-.33.46-.13.13-.27.27-.43.36-.02.01-.05.02-.07.03-.09.04-.04.18.05.18.23 0 .46-.19.61-.34.04-.04.08-.09.12-.14 0 .02.02.08.03.12.02.08.02.16.02.24 0 .26-.16.5-.35.67-.21.2-.49.4-.78.44-.14.02-.3.02-.44.03-.1 0-.2-.01-.3 0-.12.01-.24.08-.24.21 0 .02 0 .04.01.06-.05-.02-.1-.03-.15-.05-.13-.03-.27-.06-.4-.08h-.02c-.15-.05-.27-.1-.42-.15-.62-.2-1.06-.74-1.19-1.37-.07-.32-.06-.66-.06-.99 0-.17.02-.33.06-.5.02-.09.04-.18.07-.26.02-.05.03-.08.04-.13.1-.21.21-.42.33-.62.02-.05.03-.1.05-.15.05-.11.09-.23.13-.35.05-.14.08-.29.08-.43v-.15c0 .01.02.02.03.03.1.09.24 0 .22-.12.08-.34.12-.68.13-1.03 0-.19 0-.39-.01-.58-.01-.15-.04-.29-.06-.44.2.02.36.19.5.33.17.17.36.34.48.56.12.22.15.48.17.73.03.26.03.51-.06.76-.09.22-.22.45-.41.61-.03 0-.06.03-.07.06-.06.06-.02.14.04.16.01 0 .02.02.04.02.15.06.31.08.47.1.15.02.31.04.46.04.15 0 .3-.02.44-.05.07-.02.14-.05.2-.08.07-.03.13-.05.2-.07.09-.03.09-.16 0-.18-.14-.04-.27.04-.4.07-.13.03-.26.03-.39.03h.01c.07-.05.15-.1.23-.14.09-.04.22-.09.32-.1.1-.01.2.01.3.03.18.03.38.05.53.16.07.05.11.11.13.18.03.08.06.17.02.24-.04.06 0 .15.07.17.04 0 .07.02.1.04 0 0 0 .01-.01.02-.06.1-.14.19-.24.26-.18.12-.43.18-.65.19v-.03c-.03-.18-.14-.37-.32-.44-.05-.02-.08.05-.05.09.05.05.07.13.08.2.01.07.02.15.02.21v.17s-.02.04-.02.05c-.02.05-.05.11-.06.17 0 0-.01.02-.01.03-.01.03 0 .06 0 .09 0 .06.02.12.05.18.04.1.1.2.14.3.04.11.03.21 0 .31s-.09.22-.06.33c.01.05.08.07.12.04l.01-.01c.04-.05.05-.11.08-.16s.05-.1.07-.16c.05-.12.06-.25.04-.37-.02-.12-.08-.23-.14-.34-.03-.05-.05-.1-.08-.16 0-.01-.01-.02-.02-.04Z" class="cls-20"/><path d="M78.93 37.31c.02-.09.04-.18.07-.26.02-.05.03-.08.04-.13.1-.21.21-.42.33-.62.02-.05.03-.1.05-.15.05-.11.09-.23.13-.35.05-.14.08-.29.08-.43v-.15c0 .01.02.02.03.03.1.09.24 0 .22-.12.08-.34.12-.68.13-1.03 0-.19 0-.39-.01-.58-.01-.15-.04-.29-.06-.44h.04c.03.08.07.18.1.25.05.17.09.33.12.5.06.29.04.57.05.87.02.34-.07.63-.15.96a2.91 2.91 0 0 0-.18-.16c0 .44-.14.91-.25 1.34-.11.44-.12.86-.1 1.3.05-.12.09-.27.2-.34.06.79.06 1.59.84 1.97.01-.14-.07-.3-.06-.46.17.14.49.36.94.47.63.15 1.15 0 1.38-.08-.21.2-.49.4-.78.44-.14.02-.3.02-.44.03-.1 0-.2-.01-.3 0-.12.01-.24.08-.24.21 0 .02 0 .04.01.06-.05-.02-.1-.03-.15-.05-.13-.03-.27-.06-.4-.08h-.02c-.15-.05-.27-.1-.42-.15-.62-.2-1.06-.74-1.19-1.37-.07-.32-.06-.66-.06-.99 0-.17.02-.33.06-.5Z" style="fill:#739334"/><path d="M82.82 36.21c.02.2-.3.42-.39.58.14.07.41.18.54 0 .04-.06.05-.29.03-.37a.277.277 0 0 0-.18-.2ZM83.02 37.58c.08-.03.11.15.11.22 0 .14-.07.26-.15.37-.1.14-.23.33-.39.41.12-.34.01-.92.44-1ZM82.77 39.48s-.05.02-.07.02c-.11.03-.23.05-.34.02-.02-.01-.03-.02-.04-.02.1-.06.21-.1.29-.2.07-.08.3-.38.42-.35.14.04-.04.31-.09.36-.05.06-.11.12-.17.17ZM80.63 33.91c.2.29.31.66.32 1.02 0 .14-.02.54-.22.58-.19.03-.14-.39-.15-.5-.03-.26-.14-.5-.17-.76-.02-.15-.01-.3.22-.33Z" class="cls-25"/></svg>